<svg width="1024" height="1024" xml:space="preserve" xmlns:xlink="http://www.w3.org/1999/xlink" xmlns="http://www.w3.org/2000/svg"><defs><linearGradient id="e"><stop style="stop-color:#dc3a58;stop-opacity:1" offset="0"/><stop style="stop-color:#dc3a58;stop-opacity:0" offset="1"/></linearGradient><linearGradient id="d"><stop style="stop-color:#dc3a58;stop-opacity:1" offset="0"/><stop style="stop-color:#dc3a58;stop-opacity:0" offset="1"/></linearGradient><linearGradient id="c"><stop style="stop-color:#84a75b;stop-opacity:1" offset="0"/><stop style="stop-color:#2f602f;stop-opacity:1" offset="1"/></linearGradient><linearGradient id="b"><stop style="stop-color:#a5e2ca;stop-opacity:1" offset="0"/><stop style="stop-color:#12b28d;stop-opacity:1" offset="1"/></linearGradient><linearGradient id="a"><stop style="stop-color:#f98182;stop-opacity:1" offset="0"/><stop style="stop-color:#630909;stop-opacity:1" offset="1"/></linearGradient><linearGradient xlink:href="#a" id="h" x1="391.126" y1="622.376" x2="404.281" y2="545.012" gradientUnits="userSpaceOnUse"/><linearGradient xlink:href="#b" id="g" x1="141.843" y1="272.622" x2="950.467" y2="886.014" gradientUnits="userSpaceOnUse"/><linearGradient xlink:href="#d" id="j" x1="495.953" y1="458.941" x2="483.11" y2="502.505" gradientUnits="userSpaceOnUse"/><linearGradient xlink:href="#e" id="i" x1="302.56" y1="431.818" x2="288.198" y2="478.734" gradientUnits="userSpaceOnUse"/><radialGradient xlink:href="#c" id="f" cx="612.498" cy="175.888" fx="612.498" fy="175.888" r="257.165" gradientTransform="matrix(1.86352 0 0 1.64953 -543.573 -108.91)" gradientUnits="userSpaceOnUse"/></defs><path style="display:inline;opacity:1;fill:url(#f);fill-opacity:1;stroke:#000;stroke-width:3.77953;stroke-linecap:round;stroke-dasharray:none" d="M437.363 276.906c2.708-73.12 62.741-108.422 82.598-118.819 71.765-37.575 120.745-18.916 160.795-26.404 54.274-10.148 130.329-68.042 135.745-66.688 5.416 1.354-3.251 28.358-2.414 28.837.838.479 29.323-17.115 31.238-16.038 1.915 1.077-11.37 20.107-9.694 20.586 1.675.479 24.295-13.285 25.851-12.447 1.556.838-7.66 23.338-5.984 23.458 1.676.12 21.902-12.088 23.578-11.011 1.675 1.077-4.548 18.67-2.514 19.269 2.035.598 10.054-5.386 11.49-5.027 1.436.36-1.915 12.806-.479 13.285 1.436.479 11.969-2.872 13.046-2.154s-19.987 38.179-20.825 58.764c-.838 20.586 5.764 64.261 21.336 86.265 15.572 22.003 55.517 73.12 45.023 133.037s-40.96 111.033-175.013 130.328c-134.053 19.296-333.777-255.24-333.777-255.24z"/><path style="display:inline;opacity:1;fill:#010201;fill-opacity:.49827;stroke:none;stroke-width:3.77953;stroke-linecap:round;stroke-dasharray:none" d="M816.777 65.168c-11.916 26.509-6.41 32.325-3.886 30.578.426-.295 1.243-1.212 2.263-2.441-.196.073-1.021.553-1.066.527-.821-.47 7.451-26.347 2.69-28.664zm28.547 12.627c-.182-.102-.796.102-1.41.305-.12.231-.246.644-.357.818-5.117 7.98-54.804 61.598-80.694 78.107-66.065 42.129-97.751 25.062-137.396 47.873-75.514 43.451-117.383 78.052-156.546 52.542-14.524-9.46-15.63-25.56-12.314-42.993-10.528 16.728-18.312 37.308-19.244 62.46 0 0 199.725 274.535 333.778 255.24 134.052-19.296 164.517-70.411 175.011-130.329 10.494-59.917-29.45-111.033-45.021-133.037-15.572-22.003-22.176-65.678-21.338-86.263.838-20.586 21.903-58.048 20.826-58.766-1.077-.718-11.61 2.633-13.047 2.154-1.436-.478 1.917-12.924.48-13.283-1.435-.359-9.455 5.624-11.49 5.025-2.034-.598 4.19-18.192 2.514-19.27-1.675-1.076-21.902 11.132-23.578 11.013-1.676-.12 7.54-22.62 5.984-23.457-1.555-.838-24.176 12.924-25.851 12.445-1.676-.479 11.608-19.507 9.693-20.584zm2.326 23.154c.175-.02.318.001.428.065 4.157 2.393 2.396 16.049-35.428 81.623-21.793 37.782 7.107 118.777-36.86 146.972-33.369 21.398-100.844 16.191-135.005-13.884-27.455-24.172-34.049-88.852 28.725-103.407 71.393-16.553 102.449-36.623 124.47-58.406 12.966-12.824 48.27-52.35 53.67-52.963z"/><path style="opacity:1;fill:#fff;fill-opacity:0;stroke:#000;stroke-width:3.77953;stroke-linecap:round;stroke-dasharray:none" d="M835.543 98.424c-34.914 41.362-48.51 52.201-71.115 69.299-39.553 29.916-109.433 27.027-156.148 71.711-46.716 44.684-97.798 100.098-97.798 100.098M876.323 118.177c-21.304 44.044-33.107 67.187-32.793 105.631.473 58.102 49.636 111.816 51.942 159.897 3.112 64.869-57.448 126.865-185.27 85.694"/><path style="display:inline;opacity:1;fill:url(#g);fill-opacity:1;stroke:#000;stroke-width:3.77953;stroke-linecap:round;stroke-dasharray:none" d="M85.574 624.748c9.574-24.894 89.164-62.953 126.864-80.068-2.872-7.66-12.327-47.036-7.54-54.696 4.788-7.66 23.1-31.716 25.014-37.46 6.34-35.437 17.406-77.763 33.033-99.697 4.907-35.426 19.611-114.961 39.615-120.162 29.92-7.78 66.065 50.746 72.768 49.788 52.073-11.66 90.69-8.651 143.32 12.687 5.805-5.386 59.92-61.564 72.768-54.576 8.66 4.71 29.263 111.006 27.228 150.203 25.014 17.055 151.276 95.196 179.319 114.157 28.327 19.155 97.27 73.387 123.122 125.09 25.851 51.703 47.873 214.473 41.17 224.048-6.702 9.574-57.447 45.958-69.894 45.958-12.448 0-88.088-90.96-91.917-90.96-3.83 0-30.106 17.591-82.004 35.533-21.842 7.551-39.042 9.982-62.743 11.495 7.273 23.348 8.786 79.359 3.041 81.274-29.516 2.811-90.484 6.804-98.953 1.914-8.617-5.744-28.835-64.261-31.823-77.893-2.674-12.194-.223-21.17.401-29.401-17.994-9.415-38.69-18.09-37.733-28.623-6.997-7.993-86.975-33.724-85.06-37.554 1.915-3.83 1.958-4.332 5.464-11.547-4.787-3.83-48.153-40.944-61.558-57.221-13.405-16.277-29.682-51.703-33.511-50.746-48.598 22.656-110.561 45.979-178.688 57.688-26.314-22.75-45.149-44.167-51.703-79.23z"/><path style="opacity:1;fill:none;fill-opacity:1;stroke:#000;stroke-width:3.77953;stroke-linecap:round;stroke-dasharray:none;stroke-opacity:1" d="M211.742 545.18c26.404 36.73 111.033 105.11 177.213 110.018 66.18 4.909 174.336-40.96 202.771-76.335"/><path style="opacity:1;fill:none;fill-opacity:1;stroke:#000;stroke-width:3.77953;stroke-linecap:round;stroke-dasharray:none;stroke-opacity:1" d="M318.036 647.422c-4.062-10.324-7.447-19.305-7.447-19.305M528.424 831.734c34.867 12.525 95.412 26.704 126.725 24.334M762.624 734.139c9.335 29.681 30.556 64.591 39.116 75.485M491.526 802.96c65.672-37.575 127.282-77.858 163.841-171.966M410.282 757.6c26.065-54.84 51.116-93.431 75.489-118.143M263.027 352.903c14.049-13.71 33.513-25.727 33.513-25.727M374.907 282.661c-11.171 3.893-35.714 16.757-35.714 16.757M518.956 294.877c-6.77 8.124-10.48 18.43-10.48 18.43M618.69 388.98c-.435 11.908-1.617 40.174-1.617 40.174"/><path style="opacity:1;fill:#007271;fill-opacity:1;stroke:none;stroke-width:3.77953;stroke-linecap:round;stroke-dasharray:none;stroke-opacity:1" d="M725.99 460.847c-11.001 6.602-18.945 10.366-18.66 22.723.507 22.089 30.563 89.144 44.345 93.685 9.897 3.26 55.348.846 62.795-11.002 6.102-9.708-3.382-49.248-6.305-52.09-4.528-4.4-82.175-53.316-82.175-53.316zM909.356 613.977c-7.66 14.362-29.443 48.112-29.921 61.038-.479 12.926 6.941 36.384 16.037 39.975 9.096 3.59 49.25 5.026 49.01 1.675-.239-3.351-14.039-77.486-35.126-102.688zM545.188 839.221c4.31 6.702 11.22 17.474 11.22 23.219 0 5.744-13.045 36.982-14.002 36.982-.958 0-13.764-37.82-14.123-44.403-.359-6.582 1.795-20.705 1.795-20.705zM517.631 651.318c6.97-1.555 26.93 3.59 30.16 10.053 3.232 6.463-2.45 40.175-5.385 47.993-2.655 7.075-35.666 26.69-50.148 21.065-14.481-5.625-7.899-47.754-6.343-51.943s23.554-25.348 31.716-27.168zM590.457 651.136c3.743-.702 12.948 8.886 13.202 13.456.254 4.57-13.16 24.875-17.095 26.912-3.5 1.812-9.811 1.245-12.187-.339-2.539-1.692-3.376-15.173-1.523-20.65 1.716-5.069 11.858-18.301 17.603-19.38zM404.291 339.782c-.057 7.682 30.16 30.639 37.461 30.519 7.3-.12 37.222-19.987 34.469-53.379-.442-5.357-7.787-10.396-14.84-10.293-16.278.24-57.021 23.982-57.09 33.153zM447.138 381.79c1.584-.34 6.533 3.158 6.223 4.788-.72 3.792-9.096 22.74-10.89 25.492-1.796 2.753-7.78 6.942-13.046 6.463-5.267-.478-13.166-11.609-11.011-16.755 2.154-5.147 25.74-19.347 28.724-19.987zM386.698 361.803c5.72.767 16.75 25.26 13.519 29.329-3.231 4.07-16.576 4.768-18.012 2.973-1.436-1.796-.55-28.324.527-29.401 1.077-1.078 3.123-3.014 3.966-2.9zM140.628 582.62c3.59 6.702 7.449 15.313 11.302 16.122 6.226 1.306 35.734-6.548 40.042-10.617 4.309-4.07 22.134-36.87 21.312-37.87-.782-.95-1.093-1.408-2.253-2.88-3.352 1.198-47.202 20.941-70.403 35.245z"/><path style="opacity:1;fill:none;fill-opacity:1;stroke:#000;stroke-width:3.77953;stroke-linecap:round;stroke-dasharray:none;stroke-opacity:1" d="M340.14 378.2c9.336 8.378 16.996 16.756 21.544 30.878M507.013 393.017c-17.695 5.16-20.152 7.036-41.553 30.128"/><ellipse style="opacity:1;fill:#000;fill-opacity:1;stroke:#000;stroke-width:3.77953;stroke-linecap:round;stroke-dasharray:none;stroke-opacity:1" cx="-100.957" cy="646.543" rx=".762" ry="5.374" transform="rotate(-44.228)"/><ellipse style="fill:#000;fill-opacity:1;stroke:#000;stroke-width:3.77953;stroke-linecap:round;stroke-dasharray:none;stroke-opacity:1" cx="691.863" cy="-47.821" rx=".762" ry="5.374" transform="rotate(55.305)"/><path style="display:inline;opacity:1;fill:#000;fill-opacity:.49827;stroke:none;stroke-width:3.77953;stroke-linecap:round;stroke-dasharray:none" d="M308.234 231.953a22.408 22.408 0 0 0-5.673.711c-.59.153-1.159.578-1.739.857 24.92 27.836 33.625 62.233 38.371 68.096 5.755 7.109 16.25-.677 35.545-7.447 4.003-1.405 15.894-8.306 30.727-16.799-9.676 1.128-19.585 2.72-30.137 5.082-6.283.898-38.444-50.484-67.094-50.5zm280.31 8.014c-1.123.03-2.397.294-3.786.748 11.247 73.383.211 175.021 3.244 183.445 3.047 8.463 20.65 8.464 29.113 8.125 8.463-.338 118.481 82.26 157.41 117.127 38.93 34.867 102.617 169.226 111.711 206.494 11.691 47.91 1.015 96.816-7.109 99.186-8.124 2.37-73.195-45.039-100.709-98.338-8.707-16.867-11.696-28.062-16.436-22.984-4.739 5.077-36.09-17.317-53.2-33.573-16.416-15.595-31.209-37.245-35.792-56.937-5.315-22.836-4.647-39.06-2.431-49.088 3.075-13.918-1.878-6.926-3.344-4.815-52.81 76.017-155.629 160.05-188.215 168.75-28.375 7.577-69.734 3.892-69.057 1.184.677-2.708 38.592-70.41 40.961-74.473 2.37-4.062 115.773-64.319 132.022-74.474 16.249-10.156 42.652-54.5 45.021-62.963 2.37-8.463-6.77-27.42-12.525-29.451-5.755-2.031-52.808 59.24-73.12 76.166-20.31 16.925-118.819 60.594-140.484 61.61-21.665 1.015-43.668-5.417-70.75-16.927-27.08-11.51-61.61-38.928-62.287-37.574-.677 1.354-24.033 33.851-74.81 65.672-28.747 18.015-48.843 22.305-72.606 22.348 4.947 4.952 10.216 9.829 15.912 14.754 68.127-11.71 130.09-35.032 178.688-57.688 3.83-.957 20.107 34.47 33.512 50.746 13.404 16.277 56.77 53.39 61.558 57.22-3.506 7.216-3.55 7.718-5.465 11.548s78.063 29.561 85.06 37.554c-.957 10.532 19.739 19.208 37.733 28.623-.018.238-.06.524-.082.762 12.37 4.623 14.075 13.968 14.867 24.041 1.805 22.941 25.73 41.976 27.252 71.596.112 2.171-2.863 6.904-7.494 11.717 14.42 3.412 68.42-.125 95.832-2.737 5.745-1.915 4.232-57.926-3.04-81.273 23.7-1.513 40.9-3.943 62.741-11.494 51.899-17.942 78.175-35.533 82.004-35.533 3.83 0 79.471 90.959 91.918 90.959 12.447 0 63.193-36.383 69.895-45.958 6.702-9.574-15.32-172.345-41.172-224.048-25.852-51.704-94.794-105.936-123.121-125.09-28.043-18.962-154.305-97.102-179.318-114.156 2.034-39.197-18.57-145.494-27.229-150.204-.803-.436-1.767-.626-2.871-.597z"/><path style="opacity:1;fill:#fff;fill-opacity:1;stroke:#000;stroke-width:3.77953;stroke-linecap:round;stroke-dasharray:none" d="M84.629 622.7c-13.837 8.49-30.128 30.298-27.589 31.652 2.539 1.354 35.919 2.961 36.729-2.708 2.031-14.218-1.962-19.183-9.14-28.943z"/><path style="fill:#fff;fill-opacity:1;stroke:#000;stroke-width:3.77953;stroke-linecap:round;stroke-dasharray:none" d="M93.895 652.918c-16.037 12.045-22.106 32.553-19.296 34.36 5.567 3.578 30.284.85 41.13-7.11-5.078-14.894-7.886-23.244-21.834-27.25zM408.663 759.88c-16.037 12.045-22.613 39.831-19.803 41.637 5.567 3.579 40.947-12.012 51.793-19.972-3.342-13.478-22.422-25.52-31.99-21.665zM560.435 932.053c-9.774 13.906-12.225 34.265-9.14 35.544 4.551 1.886 36.377-7.95 48.07-29.959-8.59-11.785-31.562-13.332-38.93-5.585z"/><path style="fill:#fff;fill-opacity:1;stroke:#000;stroke-width:3.77953;stroke-linecap:round;stroke-dasharray:none" d="M599.672 936.9c-7.235 11.538-3.682 33.15-.508 34.19 4.72 1.548 21.313-9.811 30.298-31.82-11.298-11.785-22.422-10.117-29.79-2.37zM629.8 938.424c.043 10.521 10.202 30.408 13.54 30.297 4.382-.145 15.559-14.72 18.958-31.99-9.605-11.108-26.992-6.731-32.498 1.693zM888.535 897.429c3.258 11.029 24.69 30.784 27.928 29.959 4.55-1.161 3.032-26.4-.508-42.315-10.451-4.846-30.208 4.27-27.42 12.356z"/><path style="fill:#fff;fill-opacity:1;stroke:#000;stroke-width:3.77953;stroke-linecap:round;stroke-dasharray:none" d="M915.5 884.7c3.259 11.028 23.168 26.383 26.405 25.557 4.55-1.16 1.678-23.86-1.862-39.776-10.451-4.845-25.13 4.609-24.543 14.218z"/><path style="fill:#fff;fill-opacity:1;stroke:#000;stroke-width:3.77953;stroke-linecap:round;stroke-dasharray:none" d="M939.197 868.958c3.258 11.03 25.198 22.322 28.435 21.496 4.55-1.16.663-20.306-2.878-36.221-10.45-3.83-28.346 6.64-25.557 14.725zM441.322 780.706c-14.344 9.675-19.344 30.527-16.418 32.667 2.959 2.164 25.714-5.412 40.96-20.988-7.065-11.109-16.666-15.026-24.542-11.679zM466.711 792.385c-11.298 12.383-10.563 29.69-7.278 30.297 4.126.763 22.493-9.689 31.82-18.788-3.68-9.415-17.852-15.871-24.542-11.51zM116.406 681.354c-12.313 8.828-20.988 27.42-18.45 28.773 2.54 1.355 26.49-.088 38.592-6.94-3.59-15.42-12.456-17.15-20.142-21.833z"/><path style="opacity:1;fill:#000;fill-opacity:1;stroke:#000;stroke-width:3.77953;stroke-linecap:round;stroke-dasharray:none;stroke-opacity:1" d="M231.947 497.884c11.49 6.343 17.952 8.377 22.021 15.558 4.07 7.181 29.562 58.765 43.924 73.366 14.362 14.602 57.685 40.497 87.728 42.488 78.936 5.232 151.879-63.91 166.84-75.52 4.228-3.282 22.38-10.293 25.013-11.011 2.633-.718-21.304 7.42-26.33 7.66-5.027.239-24.418-2.119-40.573-1.197-35.666 2.034-90.757 16.673-106.638 21.902-15.623-8.89-52.66-26.81-79.59-38.419-17.433-7.515-82.185-31.955-92.395-34.827z"/><path style="opacity:1;fill:url(#h);fill-opacity:1;stroke:#000;stroke-width:3.77953;stroke-linecap:round;stroke-dasharray:none;stroke-opacity:1" d="M290.711 519.965c-9.096 16.756-11.25 24.176-12.566 37.88 4.069 7.181 13.932 23.148 19.747 28.963 14.483 14.483 57.685 40.497 87.728 42.488 78.936 5.232 151.879-63.91 166.84-75.52 4.228-3.282 22.38-10.293 25.013-11.011 2.633-.718-21.304 7.42-26.33 7.66-5.027.239-24.418-2.119-40.573-1.197-35.666 2.034-90.757 16.673-106.638 21.902-15.624-8.89-52.66-26.81-79.59-38.419-17.433-7.515-23.42-9.874-33.63-12.746z"/><path style="fill:#fff;fill-opacity:1;stroke:#000;stroke-width:3.77953;stroke-linecap:round;stroke-dasharray:none" d="M285.625 518.76c.72 12.644 3.283 23.304 4.732 29.43 7.693-5.922 13.899-12.61 20.436-19.972-9.566-4.023-16.797-6.849-25.168-9.457zM494.073 551.294c3.95 13.002 9.267 19.593 14.426 27.515 10.804-12.505 15.095-19.433 20.077-27.991-11.361-1.75-24.696-.745-34.503.476z"/><path style="opacity:1;fill:#fff;fill-opacity:1;stroke:#000;stroke-width:3.77953;stroke-linecap:round;stroke-dasharray:none;stroke-opacity:1" d="M315.836 383.37c29.427 1.518 45.1 82.691 36.39 88.69-15.233 10.495-76.335 2.201-83.444-10.662-3.971-7.186 24.533-79.19 47.054-78.028zM454.458 489.494c14.363 12.477 90.5 10.059 92.246-.846 3.254-20.335-15.1-85.106-34.698-84.629-21.353.52-60.689 82.747-57.548 85.475z"/><path style="opacity:1;fill:url(#i);fill-opacity:1;stroke:#000;stroke-width:3.77953;stroke-linecap:round;stroke-dasharray:none;stroke-opacity:1" d="M314.775 383.37c-22.343 1.073-49.903 70.955-45.994 78.028 5.84 9.564 40.86 15.818 45.56 14.37 22.114-27.304 17.517-86.332 1.495-92.399a10.658 10.658 0 0 0-1.06 0zm-7.01 32.282c.328 0 .644.044.946.135 3.828 1.16 4.74 9.332 2.035 18.252-2.703 8.92-8.476 16.885-12.303 15.724-3.827-1.16-4.26-11.006-1.556-19.925 2.456-8.105 7.11-14.174 10.879-14.186z"/><path style="opacity:1;fill:url(#j);fill-opacity:1;stroke:#000;stroke-width:3.77953;stroke-linecap:round;stroke-dasharray:none;stroke-opacity:1" d="M512.006 404.02c-21.353.52-60.69 82.746-57.549 85.474 15.632 10.7 57.897 8.041 67.959 7.193 7.656-32.521-1.645-82.059-10.41-92.667zm-12.7 34.203a7.6 19.628 12.604 0 1 1.005.052 7.6 19.628 12.604 0 1 3.134 20.813 7.6 19.628 12.604 0 1-11.699 17.498 7.6 19.628 12.604 0 1-3.135-20.815 7.6 19.628 12.604 0 1 10.696-17.548z"/><path style="opacity:1;fill:#fff;fill-opacity:.598616;stroke:none;stroke-width:3.77953;stroke-linecap:round;stroke-dasharray:none;stroke-opacity:1" d="M315.444 385.216c-1.015 14.81-6.04 24.473-13.91 29.636-7.871 5.162-17.175 5.869-17.683 5.7 3.53-7.298 10.184-18.734 15.969-25.229 4.335-4.867 9.533-10.097 15.624-10.107z"/><path style="fill:#fff;fill-opacity:.598616;stroke:none;stroke-width:3.77953;stroke-linecap:round;stroke-dasharray:none;stroke-opacity:1" d="M511.183 405.96c-1.015 14.81-6.813 25.723-14.683 30.886-7.87 5.162-17.609 5.562-18.117 5.393 4.831-8.017 11.503-18.07 17.215-24.553 4.402-4.998 9.917-10.7 15.585-11.726z"/><path style="opacity:1;fill:#000;fill-opacity:.50173;stroke:none;stroke-width:3.77953;stroke-linecap:round;stroke-dasharray:none;stroke-opacity:1" d="M92.768 640.653c-13.837 8.49-38.267 12.345-35.728 13.699 2.539 1.354 36.338 3.006 36.729-2.708.236-3.446-.885-8.77-1.001-10.99z"/><path style="fill:#000;fill-opacity:.50173;stroke:none;stroke-width:3.77953;stroke-linecap:round;stroke-dasharray:none" d="M110.112 668.776c-16.037 12.045-38.323 16.695-35.513 18.502 5.567 3.578 30.284.85 41.13-7.11-1.787-5.02-3.218-7.386-5.617-11.392zM421.62 760.9c-4.747 14.161-17.138 28.758-32.76 40.617 5.567 3.579 40.947-12.012 51.793-19.972-2.665-5.861-11.666-15.359-19.034-20.644z"/><path style="fill:#000;fill-opacity:.50173;stroke:none;stroke-width:3.77953;stroke-linecap:round;stroke-dasharray:none;stroke-opacity:1" d="M571.099 927.483c-7.067 19.492-22.89 38.835-19.803 40.114 4.55 1.886 36.376-7.95 48.069-29.959-4.696-4.507-17.514-9.778-28.266-10.155z"/><path style="fill:#000;fill-opacity:.49826989;stroke:none;stroke-width:3.77953;stroke-linecap:round;stroke-dasharray:none" d="M599.672 936.9c-7.235 11.538-3.682 33.15-.508 34.19 4.72 1.548 21.313-9.811 30.298-31.82-11.298-11.785-22.422-10.117-29.79-2.37zM629.8 938.424c.043 10.521 10.202 30.408 13.54 30.297 4.382-.145 15.559-14.72 18.958-31.99-9.605-11.108-26.992-6.731-32.498 1.693zM888.535 897.429c3.258 11.029 24.69 30.784 27.928 29.959 4.55-1.161 3.032-26.4-.508-42.315-10.451-4.846-30.208 4.27-27.42 12.356z"/><path style="fill:#000;fill-opacity:.50173008;stroke:none;stroke-width:3.77953;stroke-linecap:round;stroke-dasharray:none" d="M915.5 884.7c3.259 11.028 23.168 26.383 26.405 25.557 4.55-1.16 1.678-23.86-1.862-39.776-10.451-4.845-25.13 4.609-24.543 14.218z"/><path style="fill:#000;fill-opacity:.50173008;stroke:none;stroke-width:3.77953;stroke-linecap:round;stroke-dasharray:none" d="M939.197 868.958c3.258 11.03 25.198 22.322 28.435 21.496 4.55-1.16.663-20.306-2.878-36.221-10.45-3.83-28.346 6.64-25.557 14.725z"/><path style="fill:#000;fill-opacity:.49827;stroke:none;stroke-width:3.77953;stroke-linecap:round;stroke-dasharray:none;stroke-opacity:1" d="M443.015 780.706c.212 15.6-4.28 22.402-18.11 32.667 2.958 2.164 25.713-5.412 40.96-20.988-4.02-7.216-10.405-13.333-22.85-11.679z"/><path style="fill:#000;fill-opacity:.49827;stroke:none;stroke-width:3.77953;stroke-linecap:round;stroke-dasharray:none" d="M464.341 794.247c11.891 14.245-1.084 22.073-4.908 28.435 4.126.763 22.493-9.689 31.82-18.788-2.834-3.83-13.79-17.733-26.912-9.647z"/><path style="fill:#000;fill-opacity:.50173;stroke:none;stroke-width:3.77953;stroke-linecap:round;stroke-dasharray:none;stroke-opacity:1" d="M129.87 690.39c-12.134 12.419-34.452 18.383-31.913 19.737 2.539 1.355 26.49-.088 38.59-6.94-1.375-4.829-3.599-7.755-6.677-12.797z"/></svg>