<?xml version="1.0" encoding="UTF-8"?>
<svg width="1024" height="1024" version="1.1" viewBox="0 0 270.95 270.95" xml:space="preserve" xmlns="http://www.w3.org/2000/svg" xmlns:xlink="http://www.w3.org/1999/xlink"><defs><linearGradient id="q" x1="59.352" x2="59.352" y1="133.54" y2="143.22" gradientTransform="matrix(1.1405 0 0 1.1405 -10.99 -15.208)" gradientUnits="userSpaceOnUse"><stop offset="0"/><stop stop-color="#2b0000" offset="1"/></linearGradient><linearGradient id="o" x1="27.063" x2="37.434" y1="202.08" y2="208.38" gradientTransform="matrix(1.1405 0 0 1.1405 -28.2 -24.135)" gradientUnits="userSpaceOnUse"><stop stop-color="#fff" offset="0"/><stop stop-color="#b2b2b2" offset="1"/></linearGradient><linearGradient id="p" x1="178.78" x2="161.01" y1="242.57" y2="234.22" gradientTransform="matrix(1.1405 0 0 1.1405 -28.2 -24.135)" gradientUnits="userSpaceOnUse"><stop stop-color="#b2b2b2" offset="0"/><stop stop-color="#fff" offset="1"/></linearGradient><linearGradient id="n" x1="172.68" x2="31.952" y1="223.36" y2="99.614" gradientTransform="matrix(1.1405 0 0 1.1405 -28.2 -24.135)" gradientUnits="userSpaceOnUse"><stop stop-color="#c45a0c" offset="0"/><stop stop-color="#cc9d09" offset="1"/></linearGradient><radialGradient id="v" cx="71.85" cy="87.644" r="5.313" gradientTransform="matrix(2.0514 0 0 1.8609 -74.891 -58.36)" gradientUnits="userSpaceOnUse"><stop stop-color="#5a5a5a" offset="0"/><stop offset="1"/></radialGradient><radialGradient id="x" cx="37.255" cy="90.163" r="4.978" gradientTransform="matrix(1.6946 0 0 2.2364 -28.055 -95.103)" gradientUnits="userSpaceOnUse"><stop stop-color="#5a5a5a" offset="0"/><stop offset="1"/></radialGradient><radialGradient id="w" cx="38.637" cy="99.2" r="5.006" gradientTransform="matrix(4.0784 0 0 2.1887 -120.7 -93.538)" gradientUnits="userSpaceOnUse"><stop stop-color="#0980a5" offset="0"/><stop offset="1"/></radialGradient><radialGradient id="u" cx="75.617" cy="97.04" r="6.073" gradientTransform="matrix(5.0514 0 0 2.0295 -301.66 -75.514)" gradientUnits="userSpaceOnUse"><stop stop-color="#0980a5" offset="0"/><stop offset="1"/></radialGradient><radialGradient id="r" cx="66.266" cy="159.09" r="20.635" gradientTransform="matrix(1.1405 0 0 .34918 -10.99 100.12)" gradientUnits="userSpaceOnUse"><stop stop-color="#d40000" offset="0"/><stop stop-color="#2b0000" offset="1"/></radialGradient><radialGradient id="s" cx="66.753" cy="119.6" r="3.307" gradientTransform="matrix(1.4064 .25119 -.422 2.3627 26.568 -154.08)" gradientUnits="userSpaceOnUse"><stop stop-color="#f7f5ed" offset="0"/><stop stop-color="#373325" offset="1"/></radialGradient><radialGradient id="t" cx="65.446" cy="119.23" r="3.307" gradientTransform="matrix(1.4504 .25118 -.40762 2.3537 -7.7405 -154.22)" gradientUnits="userSpaceOnUse"><stop stop-color="#f7f5ed" offset="0"/><stop stop-color="#373325" offset="1"/></radialGradient><radialGradient id="y" cx="69.929" cy="120.07" r="3.307" gradientTransform="matrix(-.61134 -.06282 .12482 -1.2148 71.711 297.48)" gradientUnits="userSpaceOnUse"><stop stop-color="#f7f5ed" offset="0"/><stop stop-color="#373325" offset="1"/></radialGradient><radialGradient id="z" cx="67.989" cy="120.39" r="3.307" gradientTransform="matrix(-.69373 .61446 -.92933 -1.0492 225.5 234.77)" gradientUnits="userSpaceOnUse"><stop stop-color="#f7f5ed" offset="0"/><stop stop-color="#373325" offset="1"/></radialGradient><filter id="filter1025" x="-.077108" y="-.047145" width="1.1542" height="1.0943" color-interpolation-filters="sRGB"><feGaussianBlur stdDeviation="1.2584189"/></filter><filter id="filter1029" x="-.081492" y="-.0522" width="1.163" height="1.1044" color-interpolation-filters="sRGB"><feGaussianBlur stdDeviation="1.1998881"/></filter><filter id="filter1033" x="-.052405" y="-.032569" width="1.1048" height="1.0651" color-interpolation-filters="sRGB"><feGaussianBlur stdDeviation="0.65942772"/></filter><filter id="filter1041" x="-.085574" y="-.042568" width="1.1711" height="1.0851" color-interpolation-filters="sRGB"><feGaussianBlur stdDeviation="0.23080463"/></filter><filter id="filter1045" x="-.079529" y="-.038648" width="1.1591" height="1.0773" color-interpolation-filters="sRGB"><feGaussianBlur stdDeviation="0.17485011"/></filter><filter id="filter1049" x="-.10436" y="-.039069" width="1.2087" height="1.0781" color-interpolation-filters="sRGB"><feGaussianBlur stdDeviation="0.20296225"/></filter><filter id="filter1053" x="-.11965" y="-.043345" width="1.2393" height="1.0867" color-interpolation-filters="sRGB"><feGaussianBlur stdDeviation="0.18956215"/></filter><filter id="filter1057" x="-.12268" y="-.044576" width="1.2454" height="1.0892" color-interpolation-filters="sRGB"><feGaussianBlur stdDeviation="0.1414542"/></filter><filter id="filter1061" x="-.15166" y="-.051085" width="1.3033" height="1.1022" color-interpolation-filters="sRGB"><feGaussianBlur stdDeviation="0.13654469"/></filter><filter id="filter1065" x="-.080383" y="-.052665" width="1.1608" height="1.1053" color-interpolation-filters="sRGB"><feGaussianBlur stdDeviation="0.11981333"/></filter><filter id="filter1069" x="-.081021" y="-.050088" width="1.162" height="1.1002" color-interpolation-filters="sRGB"><feGaussianBlur stdDeviation="0.097149626"/></filter><filter id="filter1073" x="-.05631" y="-.060898" width="1.1126" height="1.1218" color-interpolation-filters="sRGB"><feGaussianBlur stdDeviation="0.17208704"/></filter><filter id="filter1077" x="-.04214" y="-.046994" width="1.0843" height="1.094" color-interpolation-filters="sRGB"><feGaussianBlur stdDeviation="0.10900687"/></filter><filter id="filter1081" x="-.059441" y="-.054483" width="1.1189" height="1.109" color-interpolation-filters="sRGB"><feGaussianBlur stdDeviation="0.16180907"/></filter><filter id="filter1085" x="-.075091" y="-.066976" width="1.1502" height="1.134" color-interpolation-filters="sRGB"><feGaussianBlur stdDeviation="0.16874618"/></filter><radialGradient id="radialGradient1432" cx="174.47" cy="73.96" r="58.789" gradientTransform="matrix(1.3203 0 0 1.4318 -61.65 -20.981)" gradientUnits="userSpaceOnUse"><stop stop-color="#ffc702" offset="0"/><stop stop-color="#ffc702" stop-opacity="0" offset="1"/></radialGradient><filter id="filter4040" x="-.413" y="-.25471" width="1.826" height="1.5094" color-interpolation-filters="sRGB"><feGaussianBlur stdDeviation="8.3979914"/></filter><filter id="filter4044" x="-.57899" y="-.28188" width="2.158" height="1.5638" color-interpolation-filters="sRGB"><feGaussianBlur stdDeviation="2.1664205"/></filter><filter id="filter4048" x="-.37723" y="-.15569" width="1.7545" height="1.3114" color-interpolation-filters="sRGB"><feGaussianBlur stdDeviation="1.1025132"/></filter><filter id="filter4052" x="-.62272" y="-.26826" width="2.2454" height="1.5365" color-interpolation-filters="sRGB"><feGaussianBlur stdDeviation="1.1604763"/></filter><filter id="filter4056" x="-.23023" y="-.15697" width="1.4605" height="1.3139" color-interpolation-filters="sRGB"><feGaussianBlur stdDeviation="0.49105997"/></filter><filter id="filter4060" x="-.27138" y="-.27048" width="1.5428" height="1.541" color-interpolation-filters="sRGB"><feGaussianBlur stdDeviation="1.1164579"/></filter><filter id="filter4064" x="-.34452" y="-.31768" width="1.689" height="1.6354" color-interpolation-filters="sRGB"><feGaussianBlur stdDeviation="1.3073632"/></filter></defs><g transform="translate(17.211 8.9263)"><rect x="88.498" y=".74059" width="160.41" height="168.34" fill="url(#radialGradient1432)" opacity=".25155" stroke-linecap="round" stroke-width="1.3185"/><g stroke="#000" stroke-width=".30224"><path d="m54.761 68.354c-19.175-2.1077-29.745 4.5301-36.004 13.817-1.6629 2.4669-4.9886 10.164-3.3269 14.425 1.7838 4.5769 0.6136 12.93 0.32505 15.386-0.57824 4.9122-5.779 11.268-5.4893 16.179 0.28855 4.9122 8.9565 18.492 11.268 20.514 2.3107 2.0221-8.4181-4.2336-12.402-8.8299-3.9838-4.5963-6.5123-10.063-8.5208-15.083-1.4313 3.9724 0.28399 9.2393-0.211 9.2724-0.4391 0.0297-5.1631-6.1018-8.1832-11.953-2.4783 5.8862 2.7144 14.188 2.2046 14.188-0.51095 0-4.2769-4.1572-5.925-8.2744-0.81661 0-0.80292 3.5151-0.31136 5.7083 0.46077 2.0552 3.8869 10.023 5.828 12.782 1.9412 2.7578 11.747 14.709 23.7 21.452 11.95 6.7404 17.16 8.6827 17.568 9.2952 0.40944 0.61246-0.81661 6.2306 1.0219 12.769 1.8385 6.5374 7.3552 18.081 7.0484 18.59-0.3068 0.51095-2.3746-1.5682-9.7719 0.29882-5.0981 1.2865-19.445 11.068-20.302 10.638-0.85881-0.42883-2.857-14.539-12.819-18.344 3.9542 8.8561 5.7972 17.209 6.1656 19.733-0.3182-0.47445-1.0459-13.272-11.617-18.771 4.4731 8.5881 6.3128 15.757 6.6446 18.825-0.60789-0.83258-0.02281-10.253-10.993-14.729 4.099 5.9295 7.4977 15.7 7.435 17.213-0.14827 3.4934 4.2096 24.489 10.346 24.156 13.326-0.72537 13.873-11.149 29.908-10.417 8.9952 0.41058 18.815 4.058 26.152 3.9838 5.0434-0.13458 13.483-1.2261 14.3-1.0219 13.865 3.1478 28.76 3.425 36.638-5.3365 4.172-0.30451 10.046-1.0983 11.577-0.69001 1.5328 0.40831 15.254 4.0602 15.936 5.1186 0.68089 1.0595 2.0963 4.8711 4.237 8.0304 3.1626 4.667 10.822 8.328 17.429 8.3942-7.1818-5.1688-11.54-9.797-12.986-12.361 1.8762 2.5274 5.195 9.1481 20.956 11.36-3.4501-2.4464-7.4966-5.6923-9.0443-8.2916-2.5103-0.40716-5.5292-4.7388-6.4633-6.7804 4.4742 8.1068 7.865 8.3702 18.654 6.9549-11.679-5.5577-13.205-12.495-12.771-14.076 1.023-3.7295-2.492-13.903-5.1209-15.591-2.4224-1.5545-7.1054-0.46989-8.953-0.94092-1.8499-0.4699-18.604-2.1442-18.809-2.7578-0.20415-0.61246 23.079-13.629 36.06-32.076 5.6969-8.0942 6.177-12.761 7.2537-21.553 0.98312-8.0406-1.737-28.091-2.4521-29.931-0.7151-1.8385-3.9838-6.4348-5.3125-6.2306-1.3276 0.20415-3.0646 4.9031-2.9619 7.3552s2.1031 11.596 0.91926 17.978c-1.0344 5.5794-6.1474 16.193-17.515 25.103-10.052 7.8775-29.27 10.139-30.395 9.4241-1.1234-0.7151-7.3837-9.415-11.062-12.377-3.677-2.9631-9.6602-7.2309-9.6602-7.7418 0-0.50981 9.0728-8.555 13.321-13.956 7.191-9.1469 13.428-23.231 14.961-27.215 1.209-3.8048 2.5582-10.37 1.6344-14.608-1.4234 3.1992-5.1871 9.9567-5.7208 9.8062-0.61131-0.17107 0.96944-8.2516-1.6344-12.204-1.185 4.2975-3.49 11.502-5.584 14.422-0.79266-0.87364-0.6786-7.7669-4.529-12.842-0.38435 4.3522-0.6136 10.011-1.8385 12.973-1.226 2.9631-3.3782 7.6916-5.3194 9.5302-1.9412 1.8385-21.751 16.008-22.875 15.395-1.1234-0.61246 6.0025-15.211 7.151-20.123 0.76415-3.2733 1.0527-11.828 0.37523-17.148-0.7151-5.6193-1.2774-13.192-8.4786-24.35-3.0418-4.7138-9.9088-13.176-21.656-14.467z" fill="url(#n)"/><path d="m48.844 161.8c-10.113 1.0846-12.887 11.391-13.561 15.436-0.12204 0.72651-0.81775 6.2306 1.0208 12.769 1.8385 6.5374 7.3552 18.081 7.0484 18.59 7.3278 15.503 22.686 27.688 35.447 31.565 13.864 3.1478 28.759 3.425 36.637-5.3365-8.9987-0.82915-12.05-2.2571-16.88-6.2728-5.5543-4.6157-7.0233-12.232-8.5345-18.373-1.128-4.5849-3.5926-13.74-13.994-29.988-9.4001-14.685-17.379-19.442-27.184-18.391zm81.234 51.393c-0.20415-0.61246 23.079-13.629 36.06-32.076 5.6969-8.0942 6.177-12.761 7.2537-21.553 0.98312-8.0406-1.737-28.091-2.4521-29.931-0.10265-0.98426 0.60904 3.0212 0.77327 4.2119 0.79836 5.8052 2.2696 15.689 1.2819 23.308-0.73905 5.6969-1.6104 13.49-10.981 24.482-7.8844 9.2496-22.631 17.036-37.226 24.05 1.1029 1.3253 2.3175 2.9767 5.292 7.508z" fill="#dcd1a1"/><path d="m13.278 219.53c-0.85881-0.42883-2.857-14.539-12.819-18.344 3.9542 8.8561 5.7972 17.209 6.1656 19.733-0.3182-0.47445-1.0459-13.272-11.617-18.771 4.4731 8.5881 6.3128 15.757 6.6446 18.825-0.60789-0.83258-0.02281-10.253-10.993-14.729 4.099 5.9295 7.4977 15.7 7.435 17.213 1.8933 0.19046 3.9063-1.1907 3.5516-2.4829-0.00684 2.1613 4.3111 1.2044 4.9863-0.0114 0.20757 1.818 7.3415 0.32619 6.6469-1.4336z" fill="url(#o)"/><path d="m151.39 243.05c-3.1535-1.2671-7.2902 0.41629-4.1982 4.2313 3.1626 4.6658 10.822 8.3269 17.429 8.393-7.1818-5.1688-11.54-9.797-12.986-12.361 1.8762 2.5274 5.195 9.1481 20.956 11.36-3.4501-2.4464-7.4966-5.6923-9.0443-8.2916-2.5103-0.40716-5.5292-4.7388-6.4633-6.7804 4.4742 8.1068 7.865 8.3702 18.654 6.9549-11.679-5.5577-13.205-12.495-12.771-14.076-1.1451-2.5935-9.1526 1.851-5.8714 7.3073-4.3944-1.6195-7.1476 1.0835-5.706 3.263z" fill="url(#p)"/></g></g><g><path d="m35.127 130.87c1.5967 1.388 10.246 10.441 13.433 11.62 1.1565 0.4277 10.509-0.43453 15.935-1.9925 8.0748-2.3175 15.579-8.6827 16.192-8.3258 0.61246 0.35812-0.31934 9.0739-0.51095 9.8586-0.36725 1.4952-7.9175 10.75-15.477 13.509-4.5826 1.672-10.894 1.7564-11.951 1.3526-8.5037-3.2425-17.855-16.061-18.565-17.697-0.25548-0.58736 0.40602-8.7934 0.94435-8.3258z" fill="url(#q)" stroke="#000" stroke-width=".30224"/><path d="m73.862 149.37c-4.237 3.6405-6.3299 4.992-9.188 5.9934-5.3148 1.859-9.553 1.5659-11.756 1.4222-3.8892-1.6492-5.7744-3.4079-8.1285-5.292 11.338-3.742 20.868-4.115 29.072-2.1236z" fill="url(#r)"/><path d="m75.41 135.79c0.2281 7.0632-2.3244 13.829-2.6494 13.901-0.32505 0.073-1.4576-4.7719-4.8803-10.143 2.1282-0.78467 4.878-1.948 7.5297-3.758z" fill="url(#s)"/><path d="m45.16 140.41c-2.2651 2.7464-4.1617 7.0484-4.4651 6.9024-0.29996-0.14485-2.4327-6.5169-0.95461-11.581 2.159 1.8396 3.4569 3.003 5.4197 4.6795z" fill="url(#t)"/><path d="m50.709 134.04c-0.49726-0.63412-3.0338 3.214-2.5285 3.6474 0.50525 0.4334 3.7877-2.0404 2.5285-3.6474zm6.42 0.34216c-1.7222 0.84056 0.0011 4.1948 0.65009 4.0454 0.46989-0.10835 0.02737-4.375-0.65009-4.0454zm-16.035-34.265c-1.8328-0.39119 2.0073 3.3508 3.9291 6.1565 0.4448 0.6501-0.61018-5.4494-3.9291-6.1565zm28.528-2.6129c-2.9836 1.7655-3.2984 9.6647-2.7076 8.3064 1.6355-3.7603 4.3431-9.2735 2.7087-8.3064z"/><path d="m74.572 99.997c-2.1898 0.85082-3.9006 2.8171-4.3716 4.8038-0.46875 1.9868 1.3732 16.902 1.8066 17.047 0.4334 0.14371 4.9247 0.1209 7.6928-1.4815 2.4247-1.4028 3.9006-3.9359 3.9724-4.5142 0.07185-0.57824-2.6734-12.728-3.5755-13.904-1.1234-1.4656-3.8184-2.6129-5.5258-1.9503z" fill="url(#u)" stroke="#000" stroke-width=".30224"/><path d="m74.572 99.997c-2.1898 0.85082-3.9006 2.8171-4.3716 4.8038-0.46875 1.9868 0.32505 9.1378 0.75844 9.2815 0.4334 0.14485 4.5997 1.3492 7.3677-0.25205 2.4259-1.4028 3.4672-4.1891 3.5402-4.7674 0.07185-0.57824-0.86793-5.9387-1.7701-7.1145-1.1234-1.4656-3.8184-2.6129-5.5258-1.9503z" fill="url(#v)" stroke="#000" stroke-width=".30224"/><ellipse cx="73.379" cy="106.21" rx="2.2388" ry="3.6839" fill="#fefefe"/><path d="m38.04 103.03c1.6902 0.0525 4.4263 2.7931 5.1483 6.2238 0.72309 3.4307 0.57596 13.929-0.14713 14.507-0.72195 0.57824-5.0616-0.6501-6.9218-1.5602-1.6652-0.81432-2.5251-1.7108-3.1022-2.6118-0.57824-0.90329-0.59991-11.545-0.19617-12.568 1.6047-4.0636 4.0694-4.0249 5.219-3.9895z" fill="url(#w)" stroke="#000" stroke-width=".30224"/><path d="m38.04 103.03c1.6902 0.0525 4.4263 2.7931 5.1483 6.2238 0.72309 3.4307 0.16766 5.4893 0.11633 5.6455-0.33075 0.99796-2.4373 3.4729-6.4165 2.7966-1.8933-0.32277-3.9964-3.953-4.237-4.9978-0.10835-0.46875-0.23381-4.6544 0.16994-5.6763 1.6047-4.0648 4.0694-4.026 5.219-3.9918z" fill="url(#x)" stroke="#000" stroke-width=".30224"/><ellipse transform="rotate(14.094)" cx="60.723" cy="95.768" rx="1.948" ry="3.0406" fill="#fefefe"/><path d="m42.643 149.45c1.4758-2.7578 2.654-2.6437 2.7943-2.6004 0.14028 0.0456-0.47217 2.0826-0.349 4.8974-0.69914-0.56798-1.2842-1.1531-2.4453-2.297z" fill="url(#y)"/><path d="m67.407 154.19c-0.13914-2.4168-1.128-5.2486-0.90899-5.3148 0.2167-0.0684 2.5456-0.024 4.1492 3.1832-1.331 0.98312-2.0643 1.4553-3.2391 2.1316z" fill="url(#z)"/><path d="m183.98 139.61c-4.4492 0.46419-10.938-1.3903-13.626-10.474-2.6882-9.0831-2.224-14.181-0.46419-17.889 1.7621-3.7067 3.6839-4.1241 3.0589-5.4688-4.0545-8.7363 0.34786-11.494-3.9622-16.893 6.8431 2.6985 3.4295 5.8394 7.3917 10.497 3.1752-3.1045 0.11177-6.7473 0.974-8.8983 2.8969-7.2297-1.8784-9.5963 0.88048-15.016 2.735-5.3718 3.433-4.8997 3.0589-10.659 4.1709 4.797 0.11519 10.544 3.2436 13.903 0.76414-6.6492 3.9861-4.2632 5.0981-7.8775 1.1131-3.6154-2.2856-6.0082 1.1131-10.289-0.16309 5.7003 3.0817 7.183 3.1969 10.705 0.11063 3.3474-1.1588 5.5155-1.9925 6.3492-0.83372 0.83486-3.0817 1.5066-3.36 3.1752-0.27829 1.6686 0.85767 3.1512-0.83372 6.2101-1.2922 2.3358 1.3903 2.5262-0.99681 4.5187 2.4327 0.60219 3.3189-0.09466 4.1241-2.0392 0.71283-1.7188 0.41743-3.0817 1.5294-4.5643 1.1131-1.4827 3.5892-1.1131 4.0557-7.532 1.8533 2.4795 2.1556 4.4959 1.599 6.7199-0.55657 2.2251-3.4991 6.4211-2.6882 7.6939 3.0589 4.797-0.53262 3.9165 1.9469 8.0634 2.8034-4.2861 5.2829-3.7067 7.4156-3.7067 2.1316 0 4.5005-1.0892 5.0046-4.1709 0.39462 2.6414 1.136 3.9622-0.99567 6.7427-2.1328 2.7806-5.0901 0.89758-5.8622 3.1752-2.0871 6.1405-4.6122 2.0392-3.1524 8.5276 1.112-2.6882 2.5433-4.8882 6.4416-4.148 2.8444 0.53946 5.5155-0.60334 5.6079-3.198 0.0924-2.5958 3.5459-3.0361 5.4688-2.6654-4.1709 3.0589-2.4407 6.4918-4.0089 7.7167-2.5662 2.0039-2.3871 4.7502-3.9622 4.7502-1.5762 0-2.7806-0.3239-4.7274 1.5294-1.9469 1.8545-3.0589 10.289-4.1709 12.884s-1.8545 5.0057-4.6351 6.9514c-2.7806 1.9469-11.771 5.3764-11.771 5.3764z" fill="#dba500" filter="url(#filter4040)"/><path transform="matrix(1.1405 0 0 1.1405 -25.669 -3.3975)" d="m183.92 122.29c-3.273 0.341-8.045-1.022-10.022-7.703s-1.636-10.431-0.34-13.158c1.294-2.727 2.363-5.073 1.904-6.062-2.983-6.426-1.526-8.425-2.656-12.109 2.534 4.513 1.69 5.444 4.604 8.87 2.335-2.284 1.605-8.066 2.239-9.648 2.13-5.317-2.13-9.357-0.1-13.343 2.012-3.951 1.692-2.684 2.595-6.805 1.487 4.476-1.984 7.697 2.443 12.209 0.764-7.823 3.937-6.412 4.755-9.07 0.818-2.66-0.416-4.161-0.101-7.195 1.231 3.475 2.21 5.083 2.38 7.415 0.181 2.456-0.427 4.26-1.207 4.64-4.894 2.396-3.013 5.131-3.218 6.359-0.204 1.227-0.909 3.772-1.705 5.515-0.747 1.634-0.07 1.197 0.704 2.26 1.79 0.444 3.504-0.529 4.096-1.959 0.524-1.264 0.623-3.186 1.441-4.277 0.818-1.09 2.927-0.99 3.27-5.711 2.254 3.748-1.432 7.243-1.84 8.879-0.41 1.636 0.155 3.056 0.752 3.992 0.554 0.999-0.593 3.857 1.23 6.908 2.063-3.153 3.197-3.934 4.765-3.934s5.925-0.571 6.296-2.838c0.29 1.943 0.749 3.403-5.388 5.247-2.468 0.742-0.64 1.264-1.783 2.823-2.82 3.847-3.22 2.017-1.542 8.025 2.11-2.494 1.812-5.29 4.68-4.746 2.092 0.397 6.212-0.242 6.28-2.15 0.068-1.91 1.86-3.498 3.217-3.283-2.608 2.193-1.364 4.775-2.517 5.676-1.887 1.474-2.416 4.068-3.575 4.068-1.16 0-2.735 0.193-4.167 1.556-1.432 1.364-3.945 8.43-4.763 10.338-0.818 1.91-2.024 3.825-4.07 5.257-2.045 1.432-8.658 3.954-8.658 3.954z" fill="#ffd146" filter="url(#filter1025)"/><path transform="matrix(1.1405 0 0 1.1405 -25.669 -3.3975)" d="m184.21 119.13c-2.75 0.287-6.76-0.859-8.42-6.473-1.661-5.613-1.375-8.764-0.287-11.055 1.089-2.291 1.987-4.262 1.6-5.094-2.505-5.399-1.85-3.99-2.8-7.085 2.13 3.792 1.786 2.095 4.234 4.974 1.962-1.92 1.552-7.387 2.085-8.716 1.79-4.468-0.082-9.087-0.328-12.837-0.26-3.97 0.162-1.89 0.92-5.352 0.397 4.208-0.224 4.313 3.496 8.104 1.251-5.475 1.175-3.68 1.862-5.915 0.688-2.234 3.779-2.095 3.857-5.678 1.034 2.919 0.538 3.828-0.723 5.336-1.351 1.616-2.208 2.014-2.578 3.229-1.336 4.38 0.343 2.644-2.196 9.263-0.375 0.976 0.13 1.991-0.54 3.456-0.626 1.373 1.852 0.315 2.502 1.209 1.503 0.372 2.172 0.408 2.67-0.794 2.427-4.581 1.207-6.764 5.055-9.083-2.31 4.508-2.911 5.912-1.465 9.573 0.52 1.318-0.722 3.097-0.221 3.883 0.466 0.84 0.355 1.29 1.887 3.854 1.733-2.65 2.93-4.769 4.247-4.769 1.318 0 2.622-0.195 4.925-0.84-1.098 1.389-1.931 1.396-4.852 2.418-2.045 0.714-0.741 2.524-1.702 3.835-2.37 3.232-1.892 4.377-0.483 9.424 5.813-7.184 2.788-6.974 6.811-6.079 4.044-0.249 4.652-1.353 5.874-4.342 0.043 2.98-1.797 4.296-2.766 5.053-1.585 1.238-0.364 1.793-1.338 1.793s-3.842-0.041-5.654 3.055c-0.84 1.433-4.29 6.31-4.978 7.914-0.687 1.604-1.7 3.214-3.42 4.417-1.718 1.203-7.274 3.322-7.274 3.322z" fill="#fff699" filter="url(#filter1029)"/><path transform="matrix(1.1405 0 0 1.1405 -25.669 -3.3975)" d="m184.31 116.46c-2.258 0.23-5.551-0.69-6.916-5.203-1.364-4.513-1.535-6.802-0.641-8.644 0.894-1.842 2.038-3.67 1.72-4.338-2.058-4.34-1.52-3.208-2.3-5.697 1.75 3.049 1.467 1.685 3.478 3.999 1.124-3.33 1.295-8.336 1.732-9.404 1.47-3.592 0.705-5.009 0.503-8.023-0.214-3.192-9e-3 -2.922-0.605-6.03 1.87 2.976 2.006 1.776 2.989 5.717 1.05-3.776 1.544-10.006 5.72-10.938-3.476 3.432-3.34 4.395-4.216 9.192-0.711 4.273-1.408 3.777-1.55 4.606-0.14 0.828 0.034 2.925-0.516 4.103-0.515 1.103 2.13 0.578 2.664 1.296 1.234 0.3 2.8 0.817 3.208-0.15 1.994-3.683 1.256-5.58 3.705-8.52-1.41 3.867-1.517 5.32-0.574 8.305 0.345 1.09-0.715 3.26-0.303 3.893 0.383 0.675 1.125 2.135 2.383 4.195 1.423-2.13 2.731-4.97 3.813-4.97s1.584-0.219 3.476-0.737c-1.593 0.852-0.936 0.614-3.335 1.435-1.679 0.575-1.36 3.127-2.15 4.18-1.945 2.599-2.204 5.835 0.193 10.462 8.093-11.065 1.933-5.112 9.585-6.976-0.838 2.314-2.816 1.015-4.06 1.97-2.62 2.356-2.88 2.524-4.076 4.526-0.69 1.153-4.113 4.748-4.677 6.038-0.565 1.289-1.864 2.075-3.276 3.042-1.411 0.967-5.974 2.671-5.974 2.671z" fill="#fffddf" filter="url(#filter1033)"/><path d="m182.49 45.435c-0.18476 3.2448-1.2671 5.1506-4.399 8.2608-1.7701 1.7575-0.6136 2.7258-2.0894 10.185 8.2916-6.8944 1.5944-5.9786 8.0863-9.9795 2.013-1.2386 0.25091-5.5486-1.5967-8.466z" fill="#dba500" filter="url(#filter4044)"/><path transform="matrix(1.1405 0 0 1.1405 -25.669 -3.3975)" d="m182.83 44.109c-0.162 2.845-0.996 3.338-3.311 6.151-1.39 1.689-0.624 0.321-1.918 6.862 5.143-4.752 0.585-3.745 5.51-7.055 1.316-0.884 1.34-3.4-0.28-5.958z" fill="#ffd146" filter="url(#filter1041)" style="mix-blend-mode:normal"/><path transform="matrix(1.1405 0 0 1.1405 -25.669 -3.3975)" d="m183 44.963c-0.163 2.844-0.428 2.24-2.743 5.054-1.39 1.688-0.624-0.736-1.917 5.804 3.151-4.71-0.176-2.325 4.453-6.038 1.153-0.925 0.974-2.831 0.207-4.82z" fill="#fff699" filter="url(#filter1045)" style="mix-blend-mode:normal"/><path d="m193.53 34.127c1.2968 0.64895 3.7956 4.4617 2.7315 5.5064-2.3666 2.3255-1.0698 3.9302-4.2153 4.8757 1.5089-3.3486-1.4564-2.313 1.1747-5.4813 1.3572-1.6344 0.88276-2.5228 0.30794-4.9008z" fill="#dba500" filter="url(#filter4052)"/><path transform="matrix(1.1405 0 0 1.1405 -25.669 -3.3975)" d="m192.75 33.745c0.773 0.44 1.958 3.034 1.325 3.741-1.409 1.574-0.738 2.762-2.523 3.875 0.898-2.266-0.982-1.68 0.584-3.825 0.807-1.106 0.956-2.182 0.615-3.791z" fill="#ffd146" filter="url(#filter1057)" style="mix-blend-mode:normal"/><path transform="matrix(1.1405 0 0 1.1405 -25.669 -3.3975)" d="m193.04 34.4c0.604 0.344 1.272 2.416 0.777 2.969-1.101 1.23-0.677 2.202-1.858 3.446 0.4-1.772-0.782-1.601 0.443-3.278 0.631-0.865 0.905-1.879 0.638-3.137z" fill="#fff699" filter="url(#filter1061)" style="mix-blend-mode:normal"/><path d="m199.36 48.123c2.3187 3.8116 3.9256 8.0863 2.1214 9.0238-4.2404 2.2046 2.6517 3.2619-6.2386 7.9722 2.1533-5.2874 0.36496-6.5123 0.33987-7.7726-0.12089-6.2842 2.597-0.95005 3.7774-9.2233z" fill="#dba500" filter="url(#filter4048)"/><path transform="matrix(1.1405 0 0 1.1405 -25.669 -3.3975)" d="m197.54 46.435c1.483 2.436 2.205 5.595 1.052 6.194-2.711 1.41 0.841 3.732-3.968 6.274 1.377-3.379-0.112-5.34-0.128-6.146-0.077-4.017 2.29-1.034 3.044-6.322z" fill="#ffd146" filter="url(#filter1049)" style="mix-blend-mode:normal"/><path transform="matrix(1.1405 0 0 1.1405 -25.669 -3.3975)" d="m197.74 47.502c1.209 1.986 1.338 4.29 0.398 4.778-2.21 1.148 0.111 3.487-2.819 5.718 1.123-2.755-0.35-4.742-0.363-5.399-0.063-3.275 2.17-0.786 2.784-5.097z" fill="#fff699" filter="url(#filter1053)" style="mix-blend-mode:normal"/><path d="m202.98 64.067c0.92724 1.0196 1.1861 2.2639-0.2338 4.2518-1.1063 1.5465 0.81432 2.9767-4.1218 3.2562 2.2069-2.4065 0.98883-3.5926 2.4966-4.6362 0.64895-0.44822 1.7781-0.6615 1.859-2.8718z" fill="#dba500" filter="url(#filter4056)"/><path transform="matrix(1.1405 0 0 1.1405 -25.669 -3.3975)" d="m200.58 59.83c0.633 0.696 0.207 1.604-0.763 2.962-0.756 1.057 0.857 2.306-2.515 2.497 1.508-1.644 0.662-2.597 1.692-3.31 0.443-0.307 1.53-0.64 1.586-2.15z" fill="#ffd146" filter="url(#filter1065)" style="mix-blend-mode:normal"/><path transform="matrix(1.1405 0 0 1.1405 -25.669 -3.3975)" d="m200.63 60.29c0.414 0.51-0.554 1.633-1.19 2.626-0.494 0.774 0.62 1.889-1.588 2.029 0.987-1.203 0.591-2.23 1.265-2.753 0.29-0.224 1.476-0.798 1.513-1.902z" fill="#fff699" filter="url(#filter1069)" style="mix-blend-mode:normal"/><path d="m207.83 91.432c-1.1109-1.6994-1.1736-3.555 1.4405-6.0596 2.0347-1.9503-0.44023-4.4856 6.9412-3.6554-3.8892 2.9117-2.3882 4.9202-4.8894 6.0459-1.0755 0.48472-2.8034 0.50981-3.4923 3.669z" fill="#dba500" filter="url(#filter4064)"/><path transform="matrix(1.1405 0 0 1.1405 -25.669 -3.3975)" d="m204.75 82.144c-0.758-1.16 0.107-2.36 1.892-4.071 1.39-1.333-0.677-3.533 4.366-2.965-2.656 1.989-1.647 3.571-3.356 4.34-0.735 0.33-2.43 0.538-2.902 2.696z" fill="#ffd146" filter="url(#filter1081)" style="mix-blend-mode:normal"/><path transform="matrix(1.1405 0 0 1.1405 -25.669 -3.3975)" d="m204.8 81.471c-0.483-0.837 1.24-2.212 2.436-3.482 0.931-0.99-0.43-2.872 2.874-2.522-1.771 1.485-1.449 3.062-2.581 3.644-0.487 0.25-2.391 0.78-2.73 2.36z" fill="#fff699" filter="url(#filter1085)" style="mix-blend-mode:normal"/><path d="m207.96 74.817c0.99795-2.0427 2.2753-2.9368 5.3296-3.9656 1.7256-0.58166 1.1633-1.5728 4.2028-5.9409-7.7258 1.8556-2.7281 3.3725-8.4056 3.9177-1.7587 0.16994-1.6594 3.5173-1.1268 5.9888z" fill="#dba500" filter="url(#filter4060)"/><path transform="matrix(1.1405 0 0 1.1405 -25.669 -3.3975)" d="m204.96 67.641c0.875-1.792 1.599-1.848 3.994-2.942 1.437-0.656 0.528-0.011 3.193-3.84-4.919 1.458-1.415 2.24-5.795 2.834-1.17 0.158-1.859 1.78-1.392 3.948z" fill="#ffd146" filter="url(#filter1073)" style="mix-blend-mode:normal"/><path transform="matrix(1.1405 0 0 1.1405 -25.669 -3.3975)" d="m205.08 67.037c0.875-1.792 0.902-1.317 3.296-2.41 1.438-0.657 0.247 0.673 2.912-3.157-3.495 2.06-0.497 1.562-4.774 2.51-1.066 0.235-1.447 1.527-1.434 3.057z" fill="#fff699" filter="url(#filter1077)" style="mix-blend-mode:normal"/></g><g transform="matrix(1.1405 0 0 1.1405 -6.04 6.7831)"><path transform="translate(-4.34,-19.282)" d="m72.74 81.094c16.578 8.773 21.357 38.182 17.226 48.133-2.315 5.575-2.11-1.516-9.455 0.012 0.19 3.21-0.304 7.302-0.65 8.99-1.268 1.93-5.23 7.078-12.142 10.922-2.595 1.444-8.384 1.952-11.623 1.825-1.078-0.042-6.056-2.592-13.58-11.26-8.097-1.486-7.404-4.075-8.678-5.385 2.828 8.735 8.755 16.302 9.768 17.189 2.027 1.773-7.38-3.712-10.873-7.742s-5.71-8.824-7.471-13.225c-0.026 2.533 2.298 7.016 2.04 7.526-0.572 1.13-2.008 0.59-2.225 0.604-0.385 0.026-4.527-5.35-7.175-10.48-0.105 3.15 4.107 9.71 7.096 11.86 0.115 0.083 2.628 0.702 4.757 3.352-1.026-0.134-2.556-0.557-7.32-2.503 0.59 1.506 11.564 6.135 20.966 10.858s17.014 9.58 32.008 10.89c16.758 1.465 18.583-2.777 21.568-1.325 0.96 0.468-2.128 2.69-2.004 3.22 0.654 2.794 2.89 5.402 4.37 5.048 9.736 3.512 16.75 9.475 19.88 14.157 5.796 8.667 4.478 8.575-3.262 7.495 7.045 6.513 19.13 8.711 6.935 22.149-11.124 12.258-19.566-4.481-17.746-15.396-3.556 1.857-2.475 14.476-7.77 19.7-6.215 6.134-19.692 5.816-29.127-7.509-5.03-7.103-17.428-24.663-10.668-39.641-23.67 1.091-43.338-27.236-43.61-35.238-0.273 2.945 1.011 4.813 1.722 6.651 0.721 1.865 2.078 5.21 3.78 7.629 1.702 2.418 10.3 12.897 20.78 18.808 10.478 5.912 15.51 7.514 15.404 8.15-0.09 0.538-0.716 5.464 0.896 11.197 1.612 5.732 6.449 15.853 6.18 16.3-0.134 0.225-0.515 4.488-1.202 6.168-0.78 1.905-5.872 2.993-7.86 4.032-2.117 1.105-1.93 0.65-3.315 0.064-2.089-0.716-10.518-0.861-13.992-0.675-0.753-0.376-2.505-12.748-11.24-16.084 4.954 5.015 9.798 12.805 7.085 11.404-6.734-3.478-2.91 0.589-1.68 5.898-0.278-0.416-0.916-11.637-10.185-16.458 4.373 3.52 10.666 14.737 7.748 12.797-8.265-5.498-2.14 2.504-1.922 3.709-0.533-0.73-0.02-8.99-9.639-12.914 3.396 2.425 8.033 6.592 8.574 13.736 0.077 1.005 0.25 1.337 2.053 1.29 2.376-0.062 2.557-1.253 5.02-0.535 1.596 0.466 3.604 0.546 4.48 5.974 0.4 2.477-0.319 22.667-10.364 8.5 1.802 4.582 3.47 7.327 5.827 7.306 11.684-0.635 12.164-9.774 26.223-9.133 7.887 0.36 16.497 3.558 22.93 3.493 4.422-0.118 11.822-1.075 12.538-0.896 12.157 2.759 25.217 3.003 32.124-4.679 3.658-0.267 8.808-0.963 10.151-0.605 1.344 0.358 13.375 3.56 13.973 4.488 0.597 0.929 1.838 4.271 3.715 7.041 2.773 4.092 9.489 7.302 15.282 7.36-6.297-4.532-10.118-8.59-11.386-10.838 1.645 2.216 4.555 8.021 18.374 9.96-3.025-2.145-6.573-4.992-7.93-7.27-2.201-0.357-4.848-4.155-5.667-5.945 3.923 7.108 6.896 7.339 16.356 6.098-10.24-4.873-11.578-10.956-11.198-12.342 0.897-3.27-2.185-12.19-4.49-13.67-2.124-1.363-6.23-0.412-7.85-0.825-1.622-0.412-16.312-1.88-16.492-2.418-0.179-0.537 20.236-11.95 31.617-28.124 4.995-7.097 8.285-16.377 5.553-36.498 0.024 13.494-2.745 20.08-6.91 25.181s-10.992 4.919-16.24 4.935c-8.813 6.907-25.663 8.89-26.648 8.263-0.986-0.627-6.475-8.255-9.7-10.853-3.224-2.597-8.47-6.339-8.47-6.787 0-0.447 7.955-7.501 11.68-12.238 6.305-8.02 11.774-20.368 13.118-23.861 1.06-3.336 2.243-9.092 1.433-12.808-1.248 2.805-4.548 8.73-5.016 8.598-0.536-0.15 0.85-7.235-1.433-10.7 0.07 7.916-3.06 10.085-4.896 12.644-0.695-0.765-0.595-6.809-3.971-11.259 1.586 12.42 3.186 12.463 2.947 16.091 3.456-1.666 6.428-4.453 5.54-3.364-1.352 1.657-5.735 4.272-8.702 9.163-3.48 5.737 1.349 6.19-16.28 15.244-1.135 0.582 10.786-14.908 10.219-17.403-1.702 1.612-19.071 14.036-20.057 13.498-0.985-0.537 5.263-13.338 6.27-17.644 0.67-2.87 0.908-9.711 0.34-14.504-0.785-6.635-1.668-13.462-7.445-21.881-2.783-4.056-8.895-11.701-18.988-12.685z" fill-opacity=".2"/></g><g transform="matrix(1.1405 0 0 1.1405 -6.04 6.7831)" stroke-linecap="round" stroke-width=".265"><g fill="none" stroke="#000"><path d="m88.57 128.49c-4.604 2.876-7.795 4.198-14.286 6.404"/><path d="m103.6 144.88c-2.845 2.401-4.992 3.993-8.582 5.38m26.619 12.153c3.867 5.274 4.545 9.655 5.148 16.776"/><path d="m111.84 172.28c15.782 2.779 20.654 14.22 22.58 16.51"/><path d="m39.516 132.5c7.117 3.537 12.28 4.272 17.724 4.674"/><path d="m99.32 186.2c-0.044-3.471 0.43-5.62 1.47-7.408m12.077-65.631c4.937-1.313 7.306-3.284 10.286-5.262-0.887 3.527-4.447 9.283-6.309 9.77m-93.07 11.859c-1.482-1.297-4.683-4.54-5.829-7.938 4.042 1.784 9.27 3.526 10.465 3.015"/><path d="m75.853 109.95c1.623-0.627 2.337-0.288 4.503 0.099m-45.634-2.601c0.349 0.627 0.822 1.019 1.321 1.33"/></g><path d="m34.662 107.48c0.414 1.858 0.153 7.71 0.435 8.538 0-0.47 0.46-6.299 0.796-7.24 0.18-0.089-1.231-1.298-1.231-1.298z" fill-opacity=".2"/></g></svg>
