<svg width="1024" height="1024" xmlns:xlink="http://www.w3.org/1999/xlink" xmlns="http://www.w3.org/2000/svg"><defs><linearGradient id="d"><stop style="stop-color:#6f6f6f;stop-opacity:1" offset="0"/><stop style="stop-color:#000;stop-opacity:1" offset="1"/></linearGradient><linearGradient id="c"><stop style="stop-color:#1c0808;stop-opacity:1" offset="0"/><stop style="stop-color:#bd1313;stop-opacity:1" offset="1"/></linearGradient><linearGradient id="b"><stop style="stop-color:#6f6f6f;stop-opacity:1" offset="0"/><stop style="stop-color:#000;stop-opacity:1" offset="1"/></linearGradient><linearGradient id="a"><stop style="stop-color:#1c0808;stop-opacity:1" offset="0"/><stop style="stop-color:#bd1313;stop-opacity:1" offset="1"/></linearGradient><linearGradient xlink:href="#a" id="e" x1="710.63" y1="295.271" x2="713.254" y2="331.746" gradientUnits="userSpaceOnUse"/><linearGradient xlink:href="#c" id="g" x1="560.498" y1="245.001" x2="563.206" y2="277.414" gradientUnits="userSpaceOnUse" gradientTransform="matrix(1.28058 0 0 1.28058 -162.049 -50.229)"/><radialGradient xlink:href="#b" id="f" cx="707.447" cy="237.56" fx="707.447" fy="237.56" r="33.283" gradientTransform="matrix(.74367 .40062 -.84294 1.56475 382.808 -424.224)" gradientUnits="userSpaceOnUse"/><radialGradient xlink:href="#d" id="h" cx="556.998" cy="209.98" fx="556.998" fy="209.98" r="22.697" gradientTransform="matrix(1.11872 .62317 -.99112 1.77927 136.402 -505.816)" gradientUnits="userSpaceOnUse"/></defs><path style="opacity:1;fill:#a1cde0;fill-opacity:1;stroke:#000;stroke-width:1.88976;stroke-linecap:round;stroke-dasharray:none;stroke-opacity:1" d="M552.294 162.406c19.386-36.555 94.472-74.68 154.528-71.684 59.698 2.978 113.435 38.766 135.406 82.598 28.087 56.034 24.897 153.183-1.877 197.731-19.153 31.869-65.487 59.88-63.795 59.88 1.693 0 56.499-14.232 115.434-5.755 5.037.725 54.84-17.603 56.532-16.248 1.693 1.354-11.17 35.205-10.494 36.898.677 1.692 31.482 1.015 32.16 4.062.676 3.047-14.218 26.404-13.203 30.466 1.016 4.063 27.759 28.436 26.066 31.144-1.693 2.708-35.206 1.016-39.945 2.708-4.74 1.693-96.49 38.054-124.574 39.606-26.554 1.468-30.128-4.739-32.497-2.708-2.37 2.031 2.36 31.56-25.728 88.353-22.012 44.51-55.516 80.228-54.162 82.598 1.354 2.37 19.485 22.05 31.143 58.563 12.032 37.68 12.187 62.287 14.556 62.626 2.37.338 54.163 14.556 55.179 16.926 1.015 2.37-8.463 11.51-8.125 13.54.339 2.031 12.187 24.712 10.833 25.389-1.354.677-42.992-7.786-42.653-5.078.338 2.708 13.54 18.619 13.202 22.004-.339 3.385-57.548 20.988-83.952 21.326-26.404.339-61.102-3.554-66.18-14.387-5.078-10.832.17-33.343-3.893-42.145-4.062-8.801-28.796-39.036-41.976-64.656-10.186-19.8-6.77-25.728-10.494-25.05-27.874 2.273-59.65-3.06-87.168-15.572-15.233-7.11-34.36-19.973-36.052-19.296-1.693.677-18.957 34.867-29.79 47.054-10.832 12.186-28.096 28.774-30.127 35.544-2.031 6.77-9.817 25.05-9.14 35.206.677 10.155 1.015 46.038-1.354 47.054-2.37 1.015-51.793-29.79-54.163-30.467-2.37-.677-41.299 28.774-46.038 27.758-4.74-1.015-16.249-39.606-19.296-41.299-3.046-1.692-59.42.645-60.594-4.739-1.494-6.852 48.07-49.762 61.271-57.209 3.079-1.736 12.367-55.11 20.24-86.478 1.52-6.06-57.577.447-118.088-68.306-43.742-49.701-69.272-99.38-78.816-113.239-3.887-5.645-14.258-8.537-24.873-20.898-12.728-14.822-30.008-42.825-28.992-88.863 1.016-46.038 15.91-57.886 25.727-72.781 9.817-14.895 42.04-38.589 83.176-41.316 57.095-3.786 98.829 7.04 136.836 48.285 36.66 39.782 31.11 81.466 33.14 81.804 2.031.339 29.51-38.334 32.894-44.766 3.386-6.432 18.367-29.097 37.914-47.054 31.76-29.174 66.35-30.805 69.396-32.497 3.047-1.693 14.092-12.754 31.82-17.942 13.929-4.075 26.743-1.692 28.097-3.385 1.354-1.692 6.985-16.454 15.596-31.222 6.585-11.292 17.562-16.632 18.239-19.678.677-3.047 3.08-60.877 1.371-65.112-1.814-4.494 2.904-21.035 7.283-29.293z"/><path style="opacity:1;fill:#a65f23;fill-opacity:1;stroke:#000;stroke-width:1.88976378;stroke-linecap:round;stroke-opacity:1;stroke-dasharray:none" d="M511.498 342.24c1.791 12.11 2.654 15.067 13.202 43.33-38.175.13-73.805 23.635-95.97 51.624-20.617 26.036-20.935 61.679-23.865 70.919-4.4 13.879-13.519 32.484-31.82 52.131-10.89 11.691-22.704 17.93-34.867 38.591-10.78 18.311-15.635 50.414-21.149 56.52-13.605-29.516-21.826-50.01-23.812-100.087-1.881-47.447 14.436-102.251 16.467-101.913 2.031.339 29.51-38.334 32.894-44.766 3.386-6.432 18.367-29.097 37.914-47.054 31.76-29.174 66.35-30.805 69.396-32.497 3.047-1.693 14.091-12.754 31.82-17.942 13.929-4.075 26.743-1.692 28.097-3.385-.521 13.826.006 23.13 1.693 34.529z"/><path style="opacity:1;fill:#fff;fill-opacity:1;stroke:#000;stroke-width:1.88976378;stroke-linecap:round;stroke-opacity:1;stroke-dasharray:none" d="M536.182 405.01c-34.11 12.686-43.33 10.426-57.31 20.733-21.03 15.507-30.946 19.698-50.964 92.494-7.71 28.034-32.365 63.968-43.963 71.264-27.475 17.283-68.305 68.422-67.083 66.664 4.907-7.061 8.916-31.118 19.312-53.582 9.032-19.516 26.105-30.726 37.658-43.541 7.397-8.206 27.946-33.929 31.237-52.422 1.925-10.817 5.693-40.538 15.2-56.61 11.712-19.8 28.752-35.84 48.77-48.232 20.047-12.41 41.317-16.26 55.534-16.277 3.673 7.281 11.61 19.508 11.61 19.508z"/><path style="opacity:1;fill:#fff;fill-opacity:0;stroke:#000;stroke-width:1.88976378;stroke-linecap:round;stroke-opacity:1;stroke-dasharray:none" d="M350.673 396.033c-3.71 14.323-7.42 28.645-9.954 50.846-2.533 22.202-3.89 52.282-1.296 75.202 2.593 22.92 9.136 38.678 15.678 54.435"/><path style="opacity:1;fill:#fff;fill-opacity:0;stroke:#000;stroke-width:1.88976378;stroke-linecap:round;stroke-dasharray:none" d="M450.227 329.122c11.144 5.586 22.286 11.172 33.274 20.566 10.988 9.394 21.82 22.596 32.652 35.797"/><path style="opacity:1;fill:#eae07c;fill-opacity:1;stroke:#000;stroke-width:1.88976;stroke-linecap:round;stroke-dasharray:none" d="M536.043 404.94c-.135.072-.33.135-.469.206.096.143.201.252.297.397 45.7 69.057 132.699 102.907 157.41 110.693 24.712 7.786 73.82 3.87 75.174 9.285 1.354 5.417-36.922 25.583-36.922 28.292 0 2.708 43.838 20.524 38.252 23.695-25.489 14.47-54.693 14.5-55.431 16.08-.493 1.054 9.66 11.428 9.732 29.621.031 7.873-112.54-11.866-182.158-43.941-47.062-21.683-80.933-46.973-109.623-75.87-3.228 11.262-5.959 21.4-8.854 28.116-16.768 38.894-37.113 56.611-37.113 56.611 28.724 14.362 57.209 46.198 66.305 75.4 9.096 29.203 8.856 50.985 6.941 65.586-1.915 14.602-9.813 26.81-8.377 26.81s36.623 23.937 65.826 30.161c29.203 6.224 50.506 6.223 58.645 4.068 8.138-2.154 110.398-43.706 130.37-69.545 27.234-35.23 77.654-99.145 79.483-170.707 1.982-77.556-9.72-103.547-12.545-116.627-1.915 1.437-37.41 28.707-80.736 29.186-43.325.479-95.59-14.028-117.77-28.484-14.801-9.648-26.993-16.026-38.437-29.034z"/><path style="opacity:1;fill:#fff;fill-opacity:0;stroke:#000;stroke-width:1.88976;stroke-linecap:round;stroke-dasharray:none" d="M433.3 626.932c27.082-22.004 67.365-39.945 67.365-39.945M493.096 552.699c1.676 14.362 7.42 34.23 7.42 34.23M758.615 643.011c-40.453 15.064-59.58 19.127-113.403 9.14-59.041-10.954-144.547-65.333-144.547-65.333"/><path style="opacity:1;fill:#fff;fill-opacity:0;stroke:#000;stroke-width:1.88976;stroke-linecap:round;stroke-dasharray:none" d="M653.675 615.93c-9.31 63.472-39.099 94.277-76.843 119.666M601.035 779.941c-14.556-20.818-24.203-44.345-24.203-44.345"/><path style="opacity:1;fill:#fff;fill-opacity:0;stroke:#000;stroke-width:1.88976;stroke-linecap:round;stroke-dasharray:none" d="M458.859 734.072c45.36 10.494 69.565 11.848 118.311 1.524M783.496 486.956c-35.544 17.94-68.55 27.25-89.369 29.45M893.318 425.834c13.644 5.745 21.423 12.567 25.493 18.312"/><path style="opacity:1;fill:#fff;fill-opacity:0;stroke:#000;stroke-width:3;stroke-linecap:round;stroke-dasharray:none" d="M764.528 340.841c-8.766 30.628-26.782 37.516-51.87 37.048-20.564-.322-25.782-11.422-51.206-14.65-20.22-2.567-35.176-2.23-42.779.38-12.08 4.146-29.89 18.7-33.001 17.982-3.112-.718-8.62-19.81-16.546-32.774-5.442-8.904-49.76-29.392-55.265-47.344"/><ellipse style="opacity:1;fill:#000;fill-opacity:1;stroke:#000;stroke-width:2.06813;stroke-linecap:round;stroke-dasharray:none" ry="9.371" rx="2.063" cy="519.608" cx="448.006" transform="matrix(.92882 -.37054 .31973 .94751 0 0)"/><ellipse style="fill:#000;fill-opacity:1;stroke:#000;stroke-width:2.07017;stroke-linecap:round;stroke-dasharray:none" ry="9.085" rx="2.132" cy="-339.595" cx="624.9" transform="rotate(56.971)"/><path style="opacity:1;fill:#fff;fill-opacity:0;stroke:#000;stroke-width:1.88976;stroke-linecap:round;stroke-dasharray:none" d="M701.744 186.86c-17.603 6.94-22.003 11.849-28.605 19.635M587.495 164.688c7.447 6.94 11.679 13.372 11.17 27.081M316.682 656.044c-15.233 24.374-26.912 41.976-35.206 71.766M77.255 540.737c18.197 12.033 52.904 11.044 71.861 1.735 24.53-12.045 38.422-23.865 46.716-43.838 8.293-19.972 9.986-38.252 4.57-55.178-5.417-16.926-14.726-21.326-23.527-24.034-8.802-2.709-22.85-2.37-34.36 7.108M731.364 554.066c-7.955-3.554-16.08-7.108-20.141-8.716M715.441 593.1c-6.77.762-16.32-.02-17.505-.443"/><path style="fill:#fff;fill-opacity:0;stroke:#000;stroke-width:1.88976;stroke-linecap:round" d="M799.926 876.244c-4.045-6.934-15.829-13.522-21.772-15.615M767.078 894.36c-6.178-7.11-16.418-15.741-16.418-15.741"/><path style="fill:#fff;fill-opacity:.50173;stroke:#000;stroke-width:1.88976;stroke-linecap:round" d="M777.508 430.021c-2.696 1.875-2.6 1.702-4.887 3.512"/><path style="fill:#a8a8a8;fill-opacity:1;stroke:#000;stroke-width:1.88976;stroke-linecap:round" d="M733.565 195.662c18.294 5.014 22.342 37.914 19.972 63.303-2.37 25.389-3.724 44.346-14.556 53.485-10.833 9.14-23.02 11.51-36.56 9.479-13.54-2.031-19.295-3.047-23.358-13.202-4.062-10.156 0-57.886 4.401-75.15 4.4-17.265 25.805-44.573 50.1-37.915z"/><path style="fill:url(#e);fill-opacity:1;stroke:none;stroke-width:1.88976;stroke-linecap:round;stroke-opacity:1" d="M742.796 275.011c-2.15 17.232-3.833 35.224-11.541 42.057-11.325 5.095-20.286 5.284-28.834 4.015-13.543-2.012-19.295-3.47-22.596-12.695-.98-2.737-1.692-9.135-1.692-12.44 9.991-11.707 55.057-12.273 64.663-20.937z"/><path style="fill:url(#f);fill-opacity:1;stroke:none;stroke-width:1.88976;stroke-linecap:round" d="M733.565 195.662c6.383 1.75 18.893 14.278 11.277 69.456-3.487 25.26-9.835 33.882-20.248 29.306-5.949-2.613-16.454 5.94-21.75 6.178-17.181.773-25.426-2.962-25.426-5.474.525-20.522.969-40.944 6.046-61.552 4.4-17.264 25.805-44.572 50.1-37.914z"/><ellipse style="fill:#fff;fill-opacity:1;stroke:none;stroke-width:1.88976;stroke-linecap:round;stroke-opacity:1" cx="737.441" cy="-105.024" rx="12.779" ry="24.204" transform="rotate(26.188)"/><path style="display:inline;fill:url(#g);fill-opacity:1;stroke:#000;stroke-width:2.41998;stroke-linecap:round;stroke-opacity:1" d="M561.664 180.28c12.641 1.38 16.86 3.985 20.23 10.729 3.373 6.743 7.664 38.316 4.292 55.175-3.372 16.859-7.663 39.848-21.15 47.512-13.487 7.663-31.916-5.508-33.718-13.794-2.623-12.06-3.065-45.673 1.532-64.064 4.598-18.392 18.695-36.662 28.814-35.558z"/><path style="fill:url(#h);fill-opacity:1;stroke:none;stroke-width:2.41998;stroke-linecap:round;stroke-opacity:1" d="M561.664 180.28c12.641 1.38 16.86 3.985 20.23 10.729 3.373 6.743 7.664 38.316 4.292 55.175-.85 4.25-8.824 14.397-23.21 20.201-16.304 6.58-32.822 3.778-33.067.404-.78-10.76-1.656-32.56 2.941-50.951 4.598-18.392 18.695-36.662 28.814-35.558z"/><ellipse style="fill:#fff;fill-opacity:1;stroke:none;stroke-width:2.41998;stroke-linecap:round;stroke-opacity:1" cx="588.276" cy="-57.683" rx="11.488" ry="21.892" transform="rotate(26.87)"/><path style="opacity:1;fill:#000;fill-opacity:.245675;stroke:none;stroke-width:1.88976;stroke-linecap:round;stroke-dasharray:none;stroke-opacity:1" d="M822.465 144.902c6.208 39.413 7.58 84.972-10.053 137.551-26.33 78.512-71.81 122.557-116.81 131.174-45.001 8.617-119.374-20.957-145.651-42.72-17.102-14.165-32.475-23.34-39.402-64.653-.23.441-.604 1.282-.744 1.457-1.354 1.693-14.168-.69-28.096 3.385-17.729 5.187-28.774 16.249-31.82 17.941-3.047 1.693-37.638 3.324-69.397 32.498-19.547 17.956-34.529 40.623-37.914 47.055-3.385 6.432-30.863 45.104-32.894 44.765-2.031-.338 3.518-42.022-33.141-81.804-32.298-35.05-67.388-48-112.209-48.817 8.715 5.371 17.206 10.594 25.066 14.598 30.719 15.65 59.005 53.054 69.735 85.645 11.865 36.04-1.98 87.688-.678 124.403 2.005 56.571 13.879 62.625 34.19 99.354-23.398 41.86-51.393 24.481-69.227 25.729-55.14 3.857-93.82-68.936-113.629-109.553 39.004-6.875 77.024-27.11 87.742-46.701 15.861-28.99 18.546-51.213 13.328-71.145-5.365-20.495-19.55-28.625-35.51-31.398-13.359-2.321-25.22 3.555-32.751 12.95 11.17-2.032 48.855 9.308 39.691 44.769-9.618 37.215-36.72 57.397-60.934 58.562-26.14 1.258-62.558-4.942-88.548-63.795 4.76 29.295 17.18 48.654 26.988 60.075 10.615 12.36 20.985 15.253 24.873 20.898 9.543 13.86 35.074 63.537 78.816 113.238 60.21 68.41 118.97 62.32 118.055 68.227.114-.487.2-.902.314-1.393 1.833-7.824 10.65-31.356 17.114-41.888 7.246-11.81 14.122-25.015 18.55-29.444 4.618-4.617 56.345-55.644 70.758-53.306 12.27 1.989 29.79 8.8 31.483 43.668 1.692 34.867-28.098 129.653-41.977 144.886-13.879 15.233-26.065 59.239-38.252 63.301-12.186 4.062-50.708 33.98-57.817 31.272-7.11-2.708-14.672-31.65-22.796-29.619-8.125 2.031-52.182 13.091-49.963 10.025 9.164-12.666 16.652-21.44 22.945-27.836-16.449 14.292-32.705 30.12-31.838 34.1 1.175 5.384 57.55 3.047 60.596 4.74 3.047 1.692 14.556 40.283 19.295 41.299 4.74 1.015 43.668-28.435 46.037-27.758 2.37.677 51.795 31.482 54.164 30.467 2.37-1.016 2.03-36.9 1.354-47.055-.677-10.156 7.11-28.435 9.14-35.205 2.032-6.77 19.295-23.359 30.127-35.545 10.833-12.187 28.097-46.376 29.79-47.053 1.692-.677 20.819 12.186 36.052 19.295 27.517 12.513 59.295 17.846 87.168 15.572 3.578-.65.852 5.123 9.645 23.112 27.792 16.291 85.733 34.163 90.87 54.117 5.762 22.387 6.295 45.08-5.054 49.375-17.092 6.148-41.179 1.643-39.098 5.248 5.078 10.832 39.776 14.725 66.18 14.387 26.404-.339 83.613-17.941 83.951-21.327.339-3.385-12.862-19.295-13.2-22.004-.34-2.708 41.297 5.756 42.651 5.079 1.355-.677-10.493-23.358-10.832-25.39-.338-2.03 9.141-11.17 8.125-13.54-1.015-2.37-52.81-16.587-55.18-16.926-2.369-.338-2.522-24.945-14.554-62.625-11.659-36.512-29.79-56.195-31.144-58.564-1.355-2.37 32.15-38.088 54.162-82.598 28.086-56.792 23.359-86.322 25.728-88.353 2.37-2.032 5.942 4.176 32.496 2.708 28.083-1.552 119.835-37.912 124.574-39.605 4.74-1.693 38.253 0 39.946-2.709 1.692-2.708-25.051-27.082-26.067-31.144-1.015-4.063 13.88-27.419 13.203-30.465-.677-3.047-31.48-2.37-32.158-4.063-.677-1.692 12.185-35.544 10.492-36.898-1.692-1.354-51.494 16.972-56.53 16.248-58.936-8.477-113.742 5.756-115.434 5.756-1.693 0 44.641-28.013 63.795-59.881 26.773-44.548 29.963-141.697 1.877-197.73-5.014-10.002-11.75-19.55-19.764-28.419zm-317.258 167.78c2.007.029 3.36.244 3.836.593.325 6.11 1.49 26.474 3.66 37.995 2.2 11.678 11.32 29.392 8.951 30.238-2.37.846-2.076 2.4-4.91-1.524-4.4-6.093-19.628-24.715-28.941-32.666-13.88-11.848-31.234-17.615-27.76-20.142 15.45-11.241 36.465-14.62 45.164-14.494zm-61.02 23.466c.461.003.815.046 1.05.127 4.416 1.533 17.514 8.842 29.7 17.643 12.187 8.801 34.53 31.145 35.715 32.668 1.185 1.523 14.048 2.031 14.725 8.463.677 6.432-24.203 7.277-48.576 16.756-24.373 9.478-38.761 41.3-47.055 53.994-8.293 12.694-5.585 37.066-17.433 60.424-4.554 8.976-26.066 41.807-33.682 47.562-7.617 5.755-24.926 26.01-28.266 29.111-9.478 8.802-21.82 38.348-28.943 41.807-6.023 2.925-23.843-62.654-9.537-131.332 5.79-27.801 13.048-41.28 21.045-55.78 4.49-8.139-13.765 52.27 16.08 126.18 2.2-3.215 13.203-12.017 11.68-12.863-1.524-.846-19.04-33.382-19.106-74.9-.048-29.848 10.388-90.89 13.603-97.49 3.216-6.601 22.58-27.604 37.305-41.145 13.805-12.694 44.788-21.274 51.695-21.225zm96.424 77.18s26.113 40.206 96.477 80.906c66.806 38.643 100.146 29.925 115.433 34.887 4.265 1.384-54.586 9.557-55.263 11.588-.677 2.031 52.022 25.748 56.93 31.523 3.507 4.128-144.085 13.467-211.208-20.789-44.184-22.549-94.784-52.013-97.492-61.83-2.708-9.817 8.608-39.062 34.866-58.343 19.773-14.52 41.3-15.572 60.257-17.942zM432.285 532.486s35.921 43.991 66.01 73.457c18.526 18.143 87.676 70.074 88.353 73.797.677 3.724-20.987 20.65-41.636 32.498-20.65 11.848-50.102 11.172-60.596 8.125-10.494-3.046-18.28-56.872-41.299-92.078-13.588-20.781-33.851-35.881-38.252-42.99-4.4-7.109 19.296-33.175 27.42-52.809zM277.89 744.811c-2.755 12.326-5.511 25.298-8.028 37.236 2.514-11.796 5.116-24.058 8.028-37.236zm-13.45 61.392c-1.303 5.126-2.385 8.538-3.105 8.943-3.111 1.756-8.331 5.58-14.338 10.338 6.673-4.47 11.37-6.213 15.354-9.998.764-3.144 1.375-6.183 2.09-9.283z"/></svg>