<?xml version="1.0" encoding="UTF-8"?>
<svg width="880.02" height="880" version="1.1" viewBox="0 0 232.84 232.83" xml:space="preserve" xmlns="http://www.w3.org/2000/svg"><defs><linearGradient id="f" x1="134.46" x2="135.54" y1="158.49" y2="147.84" gradientUnits="userSpaceOnUse"><stop stop-color="#241c1c" offset="0"/><stop stop-color="#501616" offset="1"/></linearGradient><linearGradient id="g" x1="110.88" x2="110.38" y1="144.53" y2="152.68" gradientUnits="userSpaceOnUse"><stop stop-color="#301500" offset="0"/><stop stop-color="#ea9e00" offset="1"/></linearGradient><radialGradient id="e" cx="134.29" cy="164.32" r="8.544" gradientTransform="matrix(1.486 .27781 -.12768 .68292 -43.947 13.213)" gradientUnits="userSpaceOnUse"><stop stop-color="#a00" offset=".253"/><stop stop-color="#370000" offset="1"/></radialGradient><radialGradient id="h" cx="108.92" cy="135.6" r="8.635" gradientTransform="matrix(1.0519 0 0 1.0768 -5.937 -10.357)" gradientUnits="userSpaceOnUse"><stop stop-color="#656565" offset="0"/><stop offset="1"/></radialGradient></defs><g transform="translate(4.7184 -34.788)"><g stroke="#000" stroke-width=".26458"><path d="m100.67 204.84c-2.866-1.344-27.228-14.33-30.005-13.614-2.776 0.716-20.42 32.691-19.973 37.17 0.448 4.478 21.944 18.45 24.81 18.002 2.866-0.447 1.97-36.363 3.045-37.707 1.075-1.343 18.809 1.791 20.332 3.135 1.522 1.343 1.79-6.986 1.79-6.986z" fill="#2b2200"/><path d="m101.58 224.52c-1.533 1.728-1.357 2.44-1.894 4.768-0.538 2.329-2.934 15.697-2.038 21.25s2.396 4.993 3.023 4.993 1.547-0.238 1.8-0.46c0.253-0.22-0.658-2.137-0.855-3.292-0.16-0.944-0.273-4.003 0.222-4.845 0.19-0.326-0.27 1-0.285 1.33-0.017 0.372-0.12 2.014 0.08 3.507 0.117 0.875 0.87 3.142 1.028 3.27 0.158 0.126 1.108 0.727 1.963 0.6 0.855-0.126 1.869-0.538 2.217-1.076s0.892-1.4 0.693-1.616c-0.19-0.206-0.702-0.328-0.805-1.663-0.078-1.023 0.587-4.809 0.729-4.95 0.131-0.107-0.792 3.948-0.712 5.014 0.053 0.718 0.57 1.6 1.203 1.79 0.634 0.19 2.156 0.39 3.056-0.19 1.203-0.776 2.47-2.73 2.898-5.763 0.324-2.295 2.09-3.958 3.42-8.043 0.891-2.738 1.995-7.79 1.615-10.007-0.38-2.216-17.358-4.616-17.358-4.616z" fill="#fd5"/><path d="m101.88 163.68c-3.403 1.344-19.48 8.285-22.167 10.345s-12.181 7.165-12.45 8.778c-0.269 1.612 0.537 3.18 1.433 3.448 0.896 0.269 5.598-0.761 5.822-0.94 0.224-0.18-3.359 0.716-3.672 1.209-0.314 0.492-0.672 2.328 0.895 2.821 1.568 0.493 19.196-1.674 21.227-2.24 10.99-3.06 17.678-7.189 18.292-7.584 0.559-0.36-6.517 3.44-6.596 3.66-0.286 0.8-8.337 22.33-8.65 23.853-0.314 1.523-1.3 8.42-0.135 12.54 1.164 4.12 4.3 7.299 5.24 7.747s11.33 4.12 12.897 4.254c1.568 0.135 4.926-0.537 6.36-1.03 1.432-0.492 6.269-1.925 8.284-1.97s8.579-0.145 10.793 0.358c0.088 0.02-0.274 0.41 0.134-0.537 0.258-0.598-0.448 0.703-0.717 1.823-0.268 1.12 0.104 3.464 0.403 4.254 0.29 0.764 1.19 1.99 2.028 2.464 0.793 0.449 3.078 1.31 4.87 1.31 1.79 0 4.444 0.271 6.788-0.758 3.131-1.375 11.391-7.018 18.2-15.408 1.705-2.1 3.09-7.165 3.09-7.926 0-0.762-0.298-0.908-0.627-1.075-0.236-0.12-0.992-0.264-1.387 0.506-0.384 0.749-1.381 2.805-1.613 3.3-0.336 0.717 1.612-3.224 1.791-3.94 0.18-0.717 0.537-1.881 0.09-2.598-0.448-0.716-0.986-1.522-2.016-1.478-1.03 0.045-2.507 0.627-2.642 1.12-0.134 0.492-1.276 2.832-1.388 3.045-0.235 0.448 1.612-3.448 1.523-3.806-0.09-0.359-0.438-1.688-1.881-2.128-1.272-0.387-2.45 0.151-2.956 0.56-0.539 0.435-3.67 3.525-4.368 4.096-1.056 0.865-2.439 2.174-3.469 2.89-1.03 0.717-3.493 2.598-3.851 2.777-0.359 0.179 5.83-4.302 6.538-5.037 0.564-0.584 4.792-3.965 4.881-4.681 0.09-0.717 0.672-5.195 0.448-8.285s-2.239-14.554-2.687-16.166c-0.448-1.613-2.61-6.77-3.269-7.972-0.95-1.733 0.997 1.785 1.534 2.994 0.538 1.21 1.646 4.843 1.78 5.47s1.075-1.702 1.791-2.239c0.717-0.537 14.42-14.778 19.84-21.854 5.418-7.076 11.24-17.152 12.404-20.69s1.21-3.627 0.896-4.612c-0.314-0.986-1.03-1.344-1.568-0.94-0.537 0.402-2.194 2.104-2.329 2.507-0.134 0.403 2.016-2.194 2.195-2.553 0.179-0.358 1.03-2.015 0.985-2.776s-0.313-1.254-1.03-1.568c-0.716-0.313-2.105-0.134-2.91 0.448-0.807 0.582-13.39 10.256-15.854 12.763-2.463 2.508-15.853 16.167-18.316 17.914-2.463 1.746-54.904 3.537-54.904 3.537zm-27-16.422c-2.28 0.285-19.744 2.786-19.744 2.786s-20.25-15.611-23.702-19.538c-3.451-3.927-10.315-11.267-14.293-17.15-3.832-5.667-8.433-16.172-8.298-16.575 0.134-0.403 14.09-1.445 25.6-1.132 11.508 0.314 13.4 0.097 22.849 1.038 9.57 0.952 17.35 2.746 17.843 3.238 0.493 0.493 12.636 11.657 14.074 21.176 0.565 3.733 1.043 14.636 0.919 15.216-2.075 9.626-15.248 10.94-15.248 10.94zm74.093-39.736c-0.285-2.28-2.533-20.124-2.533-20.124s15.484-20.124 19.411-23.576c3.927-3.451 12.115-9.188 17.086-11.696 4.97-2.508 15.54-7.926 15.943-7.792s2.015 11.24 1.701 22.75c-0.313 11.509 0 21.988-1.79 31.437-1.792 9.45-4.12 16.033-4.613 16.525-0.493 0.493-9.53 5.366-19.049 6.805-3.733 0.564-14.636 1.043-15.215 0.918-9.627-2.074-10.941-15.247-10.941-15.247z" fill="#fd5"/></g><path d="m115.14 171.61c-0.941 1.631-1.053 4.512 0.358 6.348 0.328 0.428 2.194-1.567 2.418-1.388 0.224 0.18 0.286 4.857 1.272 8.082 0.985 3.224 3.51 7.73 4.044 6.957 3.468-5.02 3.473-10.068 3.73-9.889 1.491 1.038 0.01 9.963 5.138 13.814 1.34 1.007 1.935-5.203 2.338-5.159 0.404 0.045 1.302 6.658 4.1 7.556 0.98 0.315 0.42-4.386 1.053-5.866 0.107-0.249 0.904 1.566 2.424 1.348 0.58-0.083-0.689-6.088 0.89-12.812 0.177-0.753 4.308 9.16 5.419 7.075 1.678-3.15 1.051-6.728 1.343-6.583 0.52 0.259 1.394 2.415 1.612 2.105 1.494-2.117 2.006-5.893 1.595-10.01 9.21-5.786 14.653-11.329 17.963-16.253 2.208-3.286 5.587-8.31 5.275-15.539a7776.8 7776.8 0 0 1-10.19 10.117c-0.248 0.244-2.25 3.803-3.207 4.928-1.56 1.837-11.907 8.09-12.013 8.062-0.851-0.224-33.639 3.911-33.639 3.911z" fill-opacity=".24681"/><path d="m113.75 168.89c-0.94 1.631-1.052 4.512 0.359 6.348 0.328 0.428 2.194-1.567 2.418-1.388 0.224 0.18 0.286 4.857 1.272 8.082 0.985 3.224 3.51 7.73 4.044 6.957 3.468-5.02 3.473-10.068 3.73-9.889 1.491 1.038 0.01 9.963 5.138 13.814 1.34 1.007 1.935-5.203 2.338-5.159 0.403 0.045 1.302 6.658 4.1 7.557 0.98 0.314 0.42-4.387 1.053-5.867 0.107-0.249 0.904 1.566 2.424 1.348 0.58-0.083-0.689-6.088 0.89-12.812 0.177-0.753 4.308 9.16 5.419 7.075 1.678-3.15 1.051-6.728 1.343-6.583 0.52 0.259 1.394 2.415 1.612 2.105 2.987-4.233 0.717-15.495-0.134-15.719-0.85-0.224-34.082 0.935-34.082 0.935z" fill="#2b2200"/><g fill="#fd5"><path d="m92.988 121.78c7.926-8.867 17.342-11.543 17.924-11.543s-8.106-2.888-8.106-2.888 9.786-1.77 14.667-1.008 10.501 2.24 11.845 3.717c1.343 1.478-2.197-2.545-3.045-3.38-0.937-0.923-4.143-3.628-5.441-4.255-1.3-0.627 7.545 0.694 10.367 2.485 2.821 1.791 5.172 3.426 6.27 4.702 0.957 1.114-1.635-1.522-1.635-1.522s8.71 0.537 9.113 0.895c0.403 0.359 0.493 5.912 0.493 5.912s-0.403-5.397-0.358-6.292c0.044-0.896-1.21-7.412-1.254-7.59-0.045-0.18 3.403 3.582 5.44 7.008 0.78 1.309 1.994 5.821 1.994 6.224s-0.695-2.843-0.695-2.843 0.336-7.972 0.247-8.464c-0.09-0.493 2.35 3.291 2.62 5.396 0.268 2.105 0.447 3.247 0.425 4.142-0.021 0.852 2.936 2.629 4.12 4.434 1.14 1.738 1.612 4.389 1.612 4.389s5.173-0.94 8.688-0.784c3.765 0.168 6.717 1.187 6.717 1.187s-9.38 3.357-9.86 3.609c-0.447 0.235-3.469 0.13-3.469 0.13l15.793 0.47s-10.69 4.476-10.928 4.837c-0.093 0.142 2.212-0.957 2.212-0.957s1.013 4.226 0.117 11.57c-0.895 7.345-3.94 13.211-8.285 17.152-4.344 3.941-11.33 9.18-27.228 10.435-15.897 1.254-29.69-4.479-30.765-5.106s-17.17-9.714-21.541-17.823c-0.177-0.328 5.33-6.09 4.97-5.688-0.357 0.403-5.042 5.56-6.207 6.77-1.164 1.209-4.433 3.57-4.836 3.705-0.403 0.134 5.831-9.681 6.34-10.59 0.162-0.292-2.084 0.9-3.679 2.008-1.606 1.114-6.244 2.093-6.468 2.048s4.152-3.534 5.328-4.651c1.153-1.096 5.318-5.51 5.677-5.645 0.358-0.134 3.717-6.118 3.353-7.37-0.417-1.439-2.508-6.865-2.239-9.405 0.031-0.293 1.93 2.15 3.292 3.672 1.297 1.452 2.754 4.456 2.843 5.038 0.09 0.583-0.625-3.994-0.895-6.493-0.453-4.188-0.224-10.323-0.224-10.323s5.866 15.674 5.866 16.122-0.94-2.687-0.94-2.687z" image-rendering="auto" stroke="#000" stroke-width=".26458"/><ellipse cx="83.923" cy="130.5" rx="4.434" ry="4.657"/><path d="m153.07 112.58h6.673v9.225h-6.673z"/></g><path d="m110.88 110.19c1.828 0.582 3.757 1.348 5.359 2.276-1.583-0.918-3.528-1.688-5.36-2.276z" fill="none" stroke="#000" stroke-width=".26458"/></g><g transform="translate(6.1514 1.0379)"><path transform="translate(-1.433,-35.826)" d="m123.25 159.02c0.84-0.638 5.187-2.505 8.322-2.485 5.408 0.033 8.762 1.677 8.767 2.053 0.022 1.743-2.968 6.196-6.976 6.243-8.128 0.095-9.5-4.822-10.113-5.81z" fill="url(#e)"/><path transform="translate(-1.433,-35.826)" d="m140.39 149.08c0.269 2.553 0.672 5.397 0.56 6.449s-0.313 2.978-0.537 3.045-4.86-1.836-8.397-1.702c-3.538 0.135-8.313 1.859-8.671 2.217s-0.778-1.88-0.778-2.575c0-0.694 0.022-2.821 0.156-2.978 0.135-0.157 6.427-0.515 9.047-1.366 2.62-0.85 7.613-2.71 8.62-3.09z" fill="url(#f)"/><path transform="translate(-1.433,-35.826)" d="m140.44 149.18c0.348 3.198 1.108 7.424-0.57 11.051-1.281 2.77-3.345 3.848-5.32 4.402-2.034 0.57-6.618 0.063-8.867-2.153-2.248-2.217-3.549-4.223-2.976-8.899 0.044-0.36 4.997-0.235 9.744-1.65 4.805-1.432 7.957-3.162 7.989-2.751z" fill="none" stroke="#000" stroke-width=".26458"/><path transform="translate(-1.433,-35.826)" d="m84.78 141.85c0.85 0.045 7.829 0.833 12.712 5.303 4.47 4.091 6.494 9.583 6.36 13.39-0.135 3.806-0.534 3.554-0.625 3.504-6.45-3.555-10.8-6.846-13.577-9.015-3.25-2.538-7.471-6.648-8.483-9.067-0.09-0.218 3.613-4.115 3.613-4.115zm84.286-4.264c-3.356 0.57-7.714 1.48-10.323 3.325-4.903 3.465-6.587 7.251-6.935 10.323s0.465 6.224 4.299 10.648c0.103 0.119 2.487-1.484 5.565-4.552 1.954-1.948 4.782-5.922 6.318-11.875 0.932-3.615 1.076-7.87 1.076-7.87z" fill="#d35f5f"/><path transform="translate(-1.433,-35.826)" d="m102.26 140.83c-0.079 1.789-0.015 5.494 2.075 8.36 2.09 2.865 7.283 2.976 8.28 3.024 0.998 0.047 5.542-2.613 6.35-5.605 0.807-2.993 0.712-5.97 0.633-6.365-0.08-0.396-17.338 0.586-17.338 0.586z" fill="url(#g)"/><path transform="translate(-1.433,-35.826)" d="m119.55 140.57c-0.873 1.77-2.658 3.926-5.676 4.087-3.228 0.171-8.01 0.026-11.588-3.684-0.083-0.085 0.504-6.93 5.576-11.777 1.196-1.144 5.138-1.333 7.254-0.112 2.116 1.22 3.239 3.125 3.605 4.21 0.784 2.317 0.829 7.276 0.829 7.276z" fill="url(#h)"/><path d="m107.33 95.263c0.982 0 1.955 1.851 1.942 4.39-0.016 2.968-1.109 4.44-2.391 4.41-1.552-0.033-2.158-2.802-1.92-4.934 0.253-2.266 0.929-3.877 2.37-3.866z" fill="#fff"/><path transform="translate(-1.433,-35.826)" d="m112.54 128.31c3.04 0.411 4.813 2.026 6.017 4.496 1.203 2.47 1.52 11.733 0.19 14.076s-3.325 4.687-5.732 5.193c-2.407 0.507-7.32-1.003-8.74-3.135-2.323-3.486-2.653-6.779-1.425-11.194 1.16-4.166 3.519-7.325 4.94-8.486 1.254-1.025 3.1-1.145 4.75-0.95z" fill="none" stroke="#000" stroke-width=".26458"/><path transform="translate(-1.433,-35.826)" d="m137.75 142.68c1.747-3.045 6.24-11.031 12.62-11.555 0.392-0.032-2.006 1.48-2.41 1.703-0.402 0.224 3.523-2.034 8.41-1.786 0.471 0.024-0.199 0.737-1.915 0.988-0.98 0.143-6.091 1.29-8.017 2.634s-8.688 8.016-8.688 8.016z"/><path transform="translate(-1.433,-35.826)" d="m82.053 107.59c-2.91-0.134-13.183-2.796-23.658-3.59-10.475-0.796-25.76-1.361-26.058-0.666-0.25 0.584 13.703 11.706 13.594 11.951-0.147 0.33-18.032-2.845-18.457-2.218-0.444 0.657 10.575 12.616 17.956 19.65 4.78 4.557 19.336 15.818 19.003 15.876-0.971 0.167-3.583 0.504-9.272 1.356-4.716-3.652-18.216-14.158-23.144-18.996-1.449-1.423-12.588-13.92-15.574-18.748-2.214-3.582-6.447-12.143-7.503-15.384 8.257-1.344 22.18-1.232 32.326-0.947 18.074 0.233 28.928 2.503 33.774 4.071 2.598 2.575 5.19 5.344 7.013 7.646z" fill="#2b2200" stroke-width=".26458"/><path transform="translate(-1.433,-35.826)" d="m184.75 119.24c4.622-19.443 6.554-30.02 6.807-34.706 0.254-4.687 2.09-17.86 1.52-18.113s-10.386 8.486-10.956 8.36c-0.57-0.127 4.433-15.58 3.736-15.833-0.696-0.254-17.796 13.743-21.47 18.303-3.673 4.56-16.155 20.247-16.492 20.676-0.053 0.068-1.346-10.118-1.318-10.508 0.024-0.33 15.302-19.834 19.054-23.365 5.123-4.35 12.047-9.338 20.67-13.55 6.03-2.945 10.027-5.071 12.507-6.125 0.52 0.222 2.186 13.308 1.652 25.898-0.06 14.588-0.709 21.008-1.137 24.521-0.713 5.849-3.282 16.013-5.137 20.085-0.29 0.637-7.958 3.96-9.437 4.357z" fill="#2b2200"/></g><g fill-opacity=".25333"><path d="m164.47 86.351c23.497-10.513 29.936-15.42 39.69-27.01-0.503 6.57-4.434 20.124-5.194 20.884s-10.04 5.592-18.857 6.704c-0.837-0.216-6.363-1.27-8.123-1.293-1.093-0.014-7.516 0.715-7.516 0.715zm-83.138 18.204c-10.703-0.19-21.882 0.998-45.948-9.832 2.77 3.958 14.17 12.619 24.589 20.44 8.771-1.171 18.149-2.52 22.008-3.135 0.602-1.06 4.145-6.143 3.863-6.428-0.21-0.213-5.32 3.515-10.006 3.847 3.04-2.594 5.494-4.892 5.494-4.892zm100.33-13.359c-3.85-0.269-11.769-0.344-13.324-0.406 0.219 3.643-0.426 10.472-2.441 13.07-6.15 8.183-11.339 14.196-20.332 18.293-0.19 1.198-0.639 4.39-3.314 6.337-2.943 2.142-5.327 1.894-8.374 1.153-2.402-0.584-3.583-1.847-4.344-2.743-3.493 0.918-6.538 1.321-11.106 1.523-3.449 0.045-11.51-0.246-12.63-0.291 0.785 0.963 8.503 4 15.182 5.06 4.025 0.64 14 1.844 20.533 0.605 6.562-1.245 12.704-2.07 18.831-6.225 5.716-3.876 9.058-7.084 11.689-14.689 0.616-1.78 2.916-8.495 1.338-17.849 1.717-0.823 8.292-3.838 8.292-3.838z" stroke-width=".26458"/><path d="m175.41 86.036c-3.9 0.865-6.625 2.435-8.957 4.557 0.291 0.067 2.8 0.123 3.359-0.101 0.56-0.224 9.628-3.448 9.628-3.56s-4.03-0.896-4.03-0.896zm-19.887-17.866c0.475 1.964 1.737 6.245 1.361 10.165-0.047 0.499 1.663-0.411 1.663-0.665 0-0.253-0.27-3.736-0.49-4.781-0.223-1.045-2.534-4.719-2.534-4.719zm-6.903-1.742c1.615 3.927 4.61 7.864 5.082 13.728 0.065 0.805 2.2-0.411 2.2-0.728s-1.528-5.473-1.836-6.096c-1.33-2.692-5.446-6.903-5.446-6.903z" stroke-width=".26458"/><path d="m107.94 72.534c7.255 0.694 17.757 3.874 18.182 4.59 0.426 0.717-4.657 1.075-5.24 0.493-0.581-0.582-12.942-5.083-12.942-5.083zm-14.899 2.191c1.615 6.872 3.404 14.05 3.626 16.689 0.062 0.733 2.58 0.543 2.106-0.95-1.758-5.526-5.732-15.739-5.732-15.739zm-4.987 7.798c3.518 5.841 3.974 8.241 4.085 9.112 0.11 0.871 2.064 0.027 1.963-0.411-0.84-3.642-6.048-8.7-6.048-8.7zm-12.023 26.872c4.908-2.565 10.079-6.077 10.775-6.52 0.697-0.444-0.098 2.028-0.826 2.408-0.729 0.38-3.612 2.307-3.895 2.439-2.054 0.955-6.054 1.673-6.054 1.673zm3.75 6.481c5.24-5.492 7.776-11.112 10.215-12.354 0.698-0.356 1.24 1.239 0.639 2.015-0.602 0.776-5.932 6.576-6.191 6.84-1.196 1.219-4.663 3.499-4.663 3.499z"/><path d="m125.57 67.569c10.463 3.304 11.492 4.597 13.926 7.74 0.825 1.064 3.131 0.095 2.889-0.2-1.069-1.294-5.02-4.604-6.904-5.26-6.509-2.267-9.911-2.28-9.911-2.28z"/></g><path d="m198.87 94.39c-1.709 1.837-9.119 18.05-14.439 24.447-5.32 6.396-22.23 20.33-22.673 21.28s0.57 20.329-0.57 23.559-3.357 17.67-5.067 18.81-11.906 5.383-20.836 4.876c-8.93-0.506-13.236 2.09-17.48 0.824-4.243-1.267-10.07-3.294-12.793-7.474s-3.61-10.26-3.547-11.083c0.064-0.823-0.76 1.52-0.886 3.547-0.127 2.026-1.14 8.866-0.19 10.893s2.212 7.004 4.492 8.144c-0.343 2.481-4.305 20.098-1.914 26.008 1.334 3.979 2.522 2.41 4.1 2.226 1.308-0.152 1.204 0.724 2.839 0.266 1.327-0.372 1.832-1.025 2.427-2.466 0.742 0.07 2.386 0.627 3.634-0.297 1.249-0.923 2.214-3.187 2.814-6.294 0.536-2.779 2.174-2.638 3.885-9.87 0.672-2.838 0.823-3.736 1.085-5.652 2.873-0.76 7.537-2.434 9.127-2.39 5.585 0.154 9.14 0.012 11.043 0.317-0.203 1.424-1.178 2.876 0.146 5.836 0.408 0.912 0.514 1.817 2.745 2.602 3.358 1.181 7.516 1.43 10.14 0.491 5.587-1.998 17.241-12.765 19.246-16.261 1.583-2.76 3.055-7.09 2.675-7.786-0.38-0.697-0.522-0.954-1.155-0.827-0.633 0.126-1.837 2.674-1.203 1.393 1.115-2.256 1.308-4.264-0.317-5.13-0.852-0.454-3.264-0.103-3.644 0.783 0.415-0.983-0.45-2.448-1.654-2.765-1.203-0.317-2.66-0.253-3.293 0.634 0.251-1.957 0.457-4.966 0.421-7.582-0.048-3.47-2.533-16.023-2.47-16.593 0.88-0.973 0.887-1.735 1.457-1.989 0.57-0.253 15.58-16.44 19.886-21.824 4.307-5.383 11.463-17.923 12.223-19.823s1.33-4.307 1.267-4.877c-0.063-0.57001-0.253-1.9-1.013-1.9s-0.577-0.268-0.35-0.707c0.294-0.57 0.603-1.383 0.54-2.016-0.064-0.633-0.697-1.33-0.697-1.33z" fill-opacity=".24681"/><path d="m148.22 195.94c0.522-2.414 10.016-10.297 15.755-13.716 2.51-1.496 4.318-4.708 5.045-5.7 0.728-0.992 2.814-2.889 3.277-2.757 0.463 0.133 0.347 0.494 0.38 0.773 0.034 0.304-1.563 3.503-1.464 3.701 0.1 0.199 2.516 0.302 3.508-0.393 0.992-0.694 2.183-2.58 2.348-2.381 0.165 0.198 0.551 1.231 0.033 2.91-0.142 0.46-1.819 3.473-1.687 3.704 0.133 0.232 1.368-0.028 1.823-0.455 0.763-0.716 1.309-3.104 1.512-3.014 1.017 0.45-1.218 6.545-2.276 7.934-1.059 1.39-7.574 8.235-10.088 10.319-2.513 2.084-7.11 6.152-9.624 6.284-7.009 0.509-9.858-2.083-8.542-7.209z" fill-opacity=".14894"/><path d="m71.965 149.31c3.045-1.164 19.522 0.01 42.785-9.61 3.529-1.46 1.925 3.027 1.253 4.953-0.671 1.925-2.507 4.355-4.21 5.474-1.701 1.12-5.205 5.71-4.981 5.128s2.653-7.02 2.653-7.02-11.093 3.907-11.854 4.13c-0.762 0.225-14.211 2.47-21.106 2.23-0.548-0.02-1.092-0.82-1.176-1.456-0.112-0.85 0.19-1.366 0.66-1.769-0.604-0.011-2.473 0.078-2.876-0.056s-1.148-2.004-1.148-2.004z" fill-opacity=".24681"/><path d="m106.6 128.84c3.104 4.687 5.73 4.905 10.796 8.135s18.104 4.333 25.827 3.29c6.957-0.941 12.846-2.817 12.67-4.735-0.198-2.151-0.715-3.901-1.04-5.077-7.816 3.426-20.747 4.588-31.47 3.2-7.115-0.92-16.783-4.813-16.783-4.813z" fill-opacity=".24681"/><path d="m136.18 114.75c0.393-0.06 1.271-1.088 0.929-1.302-0.342-0.215-1.637 0.047-1.76 0.261-0.122 0.214 0.416 1.105 0.831 1.041z"/></svg>
